<svg class="railroad-diagram" width="298" height="112" viewBox="0 0 298 112" xmlns="http://www.w3.org/2000/svg" xmlns:xlink="http://www.w3.org/1999/xlink">
<g transform="translate(.5 .5)">
<g class="Start">
<path d="M20 54v20m0 -10h20"></path>
</g>
<path d="M40 64h10"></path>
<g class="Group rule">
<path d="M50 64h0"></path>
<path d="M248 64h0"></path>
<rect x="50" y="36" width="198" height="56" rx="10" ry="10" class="group-box"></rect>
<g class="Sequence">
<path d="M50 64h10"></path>
<path d="M238 64h10"></path>
<path d="M88.5 64h10"></path>
<g class="terminal literal">
<path d="M60 64h0"></path>
<path d="M88.5 64h0"></path>
<rect x="60" y="53" width="28.5" height="22" rx="10" ry="10"></rect>
<text x="74.25" y="68">#</text>
</g>
<g class="Choice">
<path d="M98.5 64h0"></path>
<path d="M238 64h0"></path>
<path d="M98.5 64a10 10 0 0 0 10 -10v0a10 10 0 0 1 10 -10"></path>
<g class="Skip">
<path d="M118.5 44h99.5"></path>
</g>
<path d="M218 44a10 10 0 0 1 10 10v0a10 10 0 0 0 10 10"></path>
<path d="M98.5 64h20"></path>
<g class="OneOrMore">
<path d="M118.5 64h0"></path>
<path d="M218 64h0"></path>
<path d="M128.5 64a10 10 0 0 0 -10 10v0a10 10 0 0 0 10 10"></path>
<g class="Skip">
<path d="M128.5 84h79.5"></path>
</g>
<path d="M208 84a10 10 0 0 0 10 -10v0a10 10 0 0 0 -10 -10"></path>
<path d="M118.5 64h10"></path>
<path d="M208 64h10"></path>
<g class="terminal class">
<path d="M128.5 64h0"></path>
<path d="M208 64h0"></path>
<rect x="128.5" y="53" width="79.5" height="22" rx="10" ry="10"></rect>
<text x="168.25" y="68">&#91;^\r\n&#93;</text>
</g>
</g>
<path d="M218 64h20"></path>
</g>
</g>
<g class="comment">
<path d="M50 28h0"></path>
<path d="M172 28h0"></path>
<text x="111" y="33" class="comment">Comment(comment)</text>
</g>
</g>
<path d="M248 64h10"></path>
<path class="End" d="M 258 64 h 20 m 0 -10 v 20"></path>
</g>
<style>  svg {
    background-color: hsl(30,20%,95%);
  }
  path {
    stroke-width: 3;
    stroke: black;
    fill: rgba(0,0,0,0);
  }
  text {
    font: bold 14px monospace;
    text-anchor: middle;
    white-space: pre;
  }
  text.diagram-text {
    font-size: 12px;
  }
  text.diagram-arrow {
    font-size: 16px;
  }
  text.label {
    text-anchor: start;
  }
  text.comment {
    font: italic 12px monospace;
  }
  g.non-terminal text {
    /*font-style: italic;*/
  }
  rect {
    stroke-width: 3;
    stroke: black;
    fill: hsl(120,100%,90%);
  }
  rect.group-box {
    stroke: gray;
    stroke-dasharray: 10 5;
    fill: none;
  }
  g.literal rect {
    fill: #fff;
  }
  path.diagram-text {
    stroke-width: 3;
    stroke: black;
    fill: white;
    cursor: help;
  }
  .decision path {
    fill: #ccc;
  }
  g.diagram-text:hover path.diagram-text {
    fill: #eee;
  }
  text.repeat-text {
    font: italic 12px monospace;
    text-anchor: end;
  }
  .repeat-box > rect.group-box {
    stroke: gray;
    stroke-width: 2;
    stroke-dasharray: 1 5;
    fill: none;
  }
  .delimiter > rect.group-box {
    stroke: gray;
    stroke-width: 2;
    stroke-dasharray: 1 5;
    fill: none;
  }

</style>
</svg>
