<svg class="railroad-diagram" width="508.5" height="154" viewBox="0 0 508.5 154" xmlns="http://www.w3.org/2000/svg" xmlns:xlink="http://www.w3.org/1999/xlink">
<g transform="translate(.5 .5)">
<g class="Start">
<path d="M20 45v20m0 -10h20"></path>
</g>
<path d="M40 55h10"></path>
<g class="Group rule">
<path d="M50 55h0"></path>
<path d="M458.5 55h0"></path>
<rect x="50" y="36" width="408.5" height="98" rx="10" ry="10" class="group-box"></rect>
<g class="Choice">
<path d="M50 55h0"></path>
<path d="M458.5 55h0"></path>
<path d="M50 55h20"></path>
<g class="Sequence">
<path d="M70 55h53.5"></path>
<path d="M385 55h53.5"></path>
<path d="M279.5 55h10"></path>
<g class="non-terminal rule-ref">
<path d="M123.5 55h0"></path>
<path d="M279.5 55h0"></path>
<rect x="123.5" y="44" width="156" height="22"></rect>
<text x="201.5" y="59">QuotedIdentifier</text>
</g>
<path d="M289.5 55h10"></path>
<path d="M328 55h10"></path>
<g class="terminal literal">
<path d="M299.5 55h0"></path>
<path d="M328 55h0"></path>
<rect x="299.5" y="44" width="28.5" height="22" rx="10" ry="10"></rect>
<text x="313.75" y="59">:</text>
</g>
<path d="M338 55h10"></path>
<g class="non-terminal rule-ref">
<path d="M348 55h0"></path>
<path d="M385 55h0"></path>
<rect x="348" y="44" width="37" height="22"></rect>
<text x="366.5" y="59">WS</text>
</g>
</g>
<path d="M438.5 55h20"></path>
<path d="M50 55a10 10 0 0 1 10 10v10a10 10 0 0 0 10 10"></path>
<g class="Sequence">
<path d="M70 85h45"></path>
<path d="M393.5 85h45"></path>
<path d="M288 85h10"></path>
<g class="non-terminal rule-ref">
<path d="M115 85h0"></path>
<path d="M288 85h0"></path>
<rect x="115" y="74" width="173" height="22"></rect>
<text x="201.5" y="89">UnquotedIdentifier</text>
</g>
<path d="M298 85h10"></path>
<path d="M336.5 85h10"></path>
<g class="terminal literal">
<path d="M308 85h0"></path>
<path d="M336.5 85h0"></path>
<rect x="308" y="74" width="28.5" height="22" rx="10" ry="10"></rect>
<text x="322.25" y="89">:</text>
</g>
<path d="M346.5 85h10"></path>
<g class="non-terminal rule-ref">
<path d="M356.5 85h0"></path>
<path d="M393.5 85h0"></path>
<rect x="356.5" y="74" width="37" height="22"></rect>
<text x="375" y="89">WS</text>
</g>
</g>
<path d="M438.5 85a10 10 0 0 0 10 -10v-10a10 10 0 0 1 10 -10"></path>
<path d="M50 55a10 10 0 0 1 10 10v40a10 10 0 0 0 10 10"></path>
<g class="non-terminal rule-ref">
<path d="M70 115h0"></path>
<path d="M438.5 115h0"></path>
<rect x="70" y="104" width="368.5" height="22"></rect>
<text x="254.25" y="119">UnquotedIdentifierFollowedByColonAndSpace</text>
</g>
<path d="M438.5 115a10 10 0 0 0 10 -10v-40a10 10 0 0 1 10 -10"></path>
</g>
<g class="comment">
<path d="M50 28h0"></path>
<path d="M158 28h0"></path>
<text x="104" y="33" class="comment">EdgeIdentifier</text>
</g>
</g>
<path d="M458.5 55h10"></path>
<path class="End" d="M 468.5 55 h 20 m 0 -10 v 20"></path>
</g>
<style>  svg {
    background-color: hsl(30,20%,95%);
  }
  path {
    stroke-width: 3;
    stroke: black;
    fill: rgba(0,0,0,0);
  }
  text {
    font: bold 14px monospace;
    text-anchor: middle;
    white-space: pre;
  }
  text.diagram-text {
    font-size: 12px;
  }
  text.diagram-arrow {
    font-size: 16px;
  }
  text.label {
    text-anchor: start;
  }
  text.comment {
    font: italic 12px monospace;
  }
  g.non-terminal text {
    /*font-style: italic;*/
  }
  rect {
    stroke-width: 3;
    stroke: black;
    fill: hsl(120,100%,90%);
  }
  rect.group-box {
    stroke: gray;
    stroke-dasharray: 10 5;
    fill: none;
  }
  g.literal rect {
    fill: #fff;
  }
  path.diagram-text {
    stroke-width: 3;
    stroke: black;
    fill: white;
    cursor: help;
  }
  .decision path {
    fill: #ccc;
  }
  g.diagram-text:hover path.diagram-text {
    fill: #eee;
  }
  text.repeat-text {
    font: italic 12px monospace;
    text-anchor: end;
  }
  .repeat-box > rect.group-box {
    stroke: gray;
    stroke-width: 2;
    stroke-dasharray: 1 5;
    fill: none;
  }
  .delimiter > rect.group-box {
    stroke: gray;
    stroke-width: 2;
    stroke-dasharray: 1 5;
    fill: none;
  }

</style>
</svg>
