<svg class="railroad-diagram" width="822" height="133" viewBox="0 0 822 133" xmlns="http://www.w3.org/2000/svg" xmlns:xlink="http://www.w3.org/1999/xlink">
<g transform="translate(.5 .5)">
<g class="Start">
<path d="M20 54v20m0 -10h20"></path>
</g>
<path d="M40 64h10"></path>
<g class="Group rule">
<path d="M50 64h0"></path>
<path d="M772 64h0"></path>
<rect x="50" y="36" width="722" height="77" rx="10" ry="10" class="group-box"></rect>
<g class="Sequence">
<path d="M50 64h10"></path>
<path d="M762 64h10"></path>
<g class="Choice">
<path d="M60 64h0"></path>
<path d="M366.5 64h0"></path>
<path d="M60 64h20"></path>
<g class="non-terminal rule-ref">
<path d="M80 64h0"></path>
<path d="M346.5 64h0"></path>
<rect x="80" y="53" width="266.5" height="22"></rect>
<text x="213.25" y="68">UnquotedIdFollowedByDirection</text>
</g>
<path d="M346.5 64h20"></path>
<path d="M60 64a10 10 0 0 1 10 10v10a10 10 0 0 0 10 10"></path>
<g class="Sequence">
<path d="M80 94h22.5"></path>
<path d="M324 94h22.5"></path>
<path d="M207.5 94h10"></path>
<g class="non-terminal rule-ref">
<path d="M102.5 94h0"></path>
<path d="M207.5 94h0"></path>
<rect x="102.5" y="83" width="105" height="22"></rect>
<text x="155" y="98">Identifier</text>
</g>
<path d="M217.5 94h10"></path>
<g class="non-terminal rule-ref">
<path d="M227.5 94h0"></path>
<path d="M324 94h0"></path>
<rect x="227.5" y="83" width="96.5" height="22"></rect>
<text x="275.75" y="98">Direction</text>
</g>
</g>
<path d="M346.5 94a10 10 0 0 0 10 -10v-10a10 10 0 0 1 10 -10"></path>
</g>
<path d="M366.5 64h10"></path>
<path d="M481.5 64h10"></path>
<g class="non-terminal rule-ref">
<path d="M376.5 64h0"></path>
<path d="M481.5 64h0"></path>
<rect x="376.5" y="53" width="105" height="22"></rect>
<text x="429" y="68">Identifier</text>
</g>
<g class="Choice">
<path d="M491.5 64h0"></path>
<path d="M614 64h0"></path>
<path d="M491.5 64a10 10 0 0 0 10 -10v0a10 10 0 0 1 10 -10"></path>
<g class="Skip">
<path d="M511.5 44h82.5"></path>
</g>
<path d="M594 44a10 10 0 0 1 10 10v0a10 10 0 0 0 10 10"></path>
<path d="M491.5 64h20"></path>
<g class="OneOrMore">
<path d="M511.5 64h0"></path>
<path d="M594 64h0"></path>
<path d="M521.5 64a10 10 0 0 0 -10 10v0a10 10 0 0 0 10 10"></path>
<g class="Skip">
<path d="M521.5 84h62.5"></path>
</g>
<path d="M584 84a10 10 0 0 0 10 -10v0a10 10 0 0 0 -10 -10"></path>
<path d="M511.5 64h10"></path>
<path d="M584 64h10"></path>
<g class="non-terminal rule-ref">
<path d="M521.5 64h0"></path>
<path d="M584 64h0"></path>
<rect x="521.5" y="53" width="62.5" height="22"></rect>
<text x="552.75" y="68">Label</text>
</g>
</g>
<path d="M594 64h20"></path>
</g>
<g class="Choice">
<path d="M614 64h0"></path>
<path d="M762 64h0"></path>
<path d="M614 64a10 10 0 0 0 10 -10v0a10 10 0 0 1 10 -10"></path>
<g class="Skip">
<path d="M634 44h108"></path>
</g>
<path d="M742 44a10 10 0 0 1 10 10v0a10 10 0 0 0 10 10"></path>
<path d="M614 64h20"></path>
<g class="OneOrMore">
<path d="M634 64h0"></path>
<path d="M742 64h0"></path>
<path d="M644 64a10 10 0 0 0 -10 10v0a10 10 0 0 0 10 10"></path>
<g class="Skip">
<path d="M644 84h88"></path>
</g>
<path d="M732 84a10 10 0 0 0 10 -10v0a10 10 0 0 0 -10 -10"></path>
<path d="M634 64h10"></path>
<path d="M732 64h10"></path>
<g class="non-terminal rule-ref">
<path d="M644 64h0"></path>
<path d="M732 64h0"></path>
<rect x="644" y="53" width="88" height="22"></rect>
<text x="688" y="68">Property</text>
</g>
</g>
<path d="M742 64h20"></path>
</g>
</g>
<g class="comment">
<path d="M50 28h0"></path>
<path d="M88 28h0"></path>
<text x="69" y="33" class="comment">Edge</text>
</g>
</g>
<path d="M772 64h10"></path>
<path class="End" d="M 782 64 h 20 m 0 -10 v 20"></path>
</g>
<style>  svg {
    background-color: hsl(30,20%,95%);
  }
  path {
    stroke-width: 3;
    stroke: black;
    fill: rgba(0,0,0,0);
  }
  text {
    font: bold 14px monospace;
    text-anchor: middle;
    white-space: pre;
  }
  text.diagram-text {
    font-size: 12px;
  }
  text.diagram-arrow {
    font-size: 16px;
  }
  text.label {
    text-anchor: start;
  }
  text.comment {
    font: italic 12px monospace;
  }
  g.non-terminal text {
    /*font-style: italic;*/
  }
  rect {
    stroke-width: 3;
    stroke: black;
    fill: hsl(120,100%,90%);
  }
  rect.group-box {
    stroke: gray;
    stroke-dasharray: 10 5;
    fill: none;
  }
  g.literal rect {
    fill: #fff;
  }
  path.diagram-text {
    stroke-width: 3;
    stroke: black;
    fill: white;
    cursor: help;
  }
  .decision path {
    fill: #ccc;
  }
  g.diagram-text:hover path.diagram-text {
    fill: #eee;
  }
  text.repeat-text {
    font: italic 12px monospace;
    text-anchor: end;
  }
  .repeat-box > rect.group-box {
    stroke: gray;
    stroke-width: 2;
    stroke-dasharray: 1 5;
    fill: none;
  }
  .delimiter > rect.group-box {
    stroke: gray;
    stroke-width: 2;
    stroke-dasharray: 1 5;
    fill: none;
  }

</style>
</svg>
