<svg class="railroad-diagram" width="1070" height="112" viewBox="0 0 1070 112" xmlns="http://www.w3.org/2000/svg" xmlns:xlink="http://www.w3.org/1999/xlink">
<g transform="translate(.5 .5)">
<g class="Start">
<path d="M20 54v20m0 -10h20"></path>
</g>
<path d="M40 64h10"></path>
<g class="Group rule">
<path d="M50 64h0"></path>
<path d="M1020 64h0"></path>
<rect x="50" y="36" width="970" height="56" rx="10" ry="10" class="group-box"></rect>
<g class="Sequence">
<path d="M50 64h10"></path>
<path d="M1010 64h10"></path>
<g class="Choice">
<path d="M60 64h0"></path>
<path d="M239 64h0"></path>
<path d="M60 64a10 10 0 0 0 10 -10v0a10 10 0 0 1 10 -10"></path>
<g class="Skip">
<path d="M80 44h139"></path>
</g>
<path d="M219 44a10 10 0 0 1 10 10v0a10 10 0 0 0 10 10"></path>
<path d="M60 64h20"></path>
<g class="non-terminal rule-ref">
<path d="M80 64h0"></path>
<path d="M219 64h0"></path>
<rect x="80" y="53" width="139" height="22"></rect>
<text x="149.5" y="68">EdgeIdentifier</text>
</g>
<path d="M219 64h20"></path>
</g>
<g class="Choice">
<path d="M239 64h0"></path>
<path d="M441 64h0"></path>
<path d="M239 64a10 10 0 0 0 10 -10v0a10 10 0 0 1 10 -10"></path>
<g class="Skip">
<path d="M259 44h162"></path>
</g>
<path d="M421 44a10 10 0 0 1 10 10v0a10 10 0 0 0 10 10"></path>
<path d="M239 64h20"></path>
<g class="Sequence">
<path d="M259 64h0"></path>
<path d="M421 64h0"></path>
<path d="M364 64h10"></path>
<g class="non-terminal rule-ref">
<path d="M259 64h0"></path>
<path d="M364 64h0"></path>
<rect x="259" y="53" width="105" height="22"></rect>
<text x="311.5" y="68">Identifier</text>
</g>
<path d="M374 64h10"></path>
<g class="non-terminal rule-ref">
<path d="M384 64h0"></path>
<path d="M421 64h0"></path>
<rect x="384" y="53" width="37" height="22"></rect>
<text x="402.5" y="68">WS</text>
</g>
</g>
<path d="M421 64h20"></path>
</g>
<path d="M441 64h10"></path>
<path d="M547.5 64h10"></path>
<g class="non-terminal rule-ref">
<path d="M451 64h0"></path>
<path d="M547.5 64h0"></path>
<rect x="451" y="53" width="96.5" height="22"></rect>
<text x="499.25" y="68">Direction</text>
</g>
<path d="M557.5 64h10"></path>
<path d="M604.5 64h10"></path>
<g class="non-terminal rule-ref">
<path d="M567.5 64h0"></path>
<path d="M604.5 64h0"></path>
<rect x="567.5" y="53" width="37" height="22"></rect>
<text x="586" y="68">WS</text>
</g>
<path d="M614.5 64h10"></path>
<path d="M729.5 64h10"></path>
<g class="non-terminal rule-ref">
<path d="M624.5 64h0"></path>
<path d="M729.5 64h0"></path>
<rect x="624.5" y="53" width="105" height="22"></rect>
<text x="677" y="68">Identifier</text>
</g>
<g class="Choice">
<path d="M739.5 64h0"></path>
<path d="M862 64h0"></path>
<path d="M739.5 64a10 10 0 0 0 10 -10v0a10 10 0 0 1 10 -10"></path>
<g class="Skip">
<path d="M759.5 44h82.5"></path>
</g>
<path d="M842 44a10 10 0 0 1 10 10v0a10 10 0 0 0 10 10"></path>
<path d="M739.5 64h20"></path>
<g class="OneOrMore">
<path d="M759.5 64h0"></path>
<path d="M842 64h0"></path>
<path d="M769.5 64a10 10 0 0 0 -10 10v0a10 10 0 0 0 10 10"></path>
<g class="Skip">
<path d="M769.5 84h62.5"></path>
</g>
<path d="M832 84a10 10 0 0 0 10 -10v0a10 10 0 0 0 -10 -10"></path>
<path d="M759.5 64h10"></path>
<path d="M832 64h10"></path>
<g class="non-terminal rule-ref">
<path d="M769.5 64h0"></path>
<path d="M832 64h0"></path>
<rect x="769.5" y="53" width="62.5" height="22"></rect>
<text x="800.75" y="68">Label</text>
</g>
</g>
<path d="M842 64h20"></path>
</g>
<g class="Choice">
<path d="M862 64h0"></path>
<path d="M1010 64h0"></path>
<path d="M862 64a10 10 0 0 0 10 -10v0a10 10 0 0 1 10 -10"></path>
<g class="Skip">
<path d="M882 44h108"></path>
</g>
<path d="M990 44a10 10 0 0 1 10 10v0a10 10 0 0 0 10 10"></path>
<path d="M862 64h20"></path>
<g class="OneOrMore">
<path d="M882 64h0"></path>
<path d="M990 64h0"></path>
<path d="M892 64a10 10 0 0 0 -10 10v0a10 10 0 0 0 10 10"></path>
<g class="Skip">
<path d="M892 84h88"></path>
</g>
<path d="M980 84a10 10 0 0 0 10 -10v0a10 10 0 0 0 -10 -10"></path>
<path d="M882 64h10"></path>
<path d="M980 64h10"></path>
<g class="non-terminal rule-ref">
<path d="M892 64h0"></path>
<path d="M980 64h0"></path>
<rect x="892" y="53" width="88" height="22"></rect>
<text x="936" y="68">Property</text>
</g>
</g>
<path d="M990 64h20"></path>
</g>
</g>
<g class="comment">
<path d="M50 28h0"></path>
<path d="M88 28h0"></path>
<text x="69" y="33" class="comment">Edge</text>
</g>
</g>
<path d="M1020 64h10"></path>
<path class="End" d="M 1030 64 h 20 m 0 -10 v 20"></path>
</g>
<style>  svg {
    background-color: hsl(30,20%,95%);
  }
  path {
    stroke-width: 3;
    stroke: black;
    fill: rgba(0,0,0,0);
  }
  text {
    font: bold 14px monospace;
    text-anchor: middle;
    white-space: pre;
  }
  text.diagram-text {
    font-size: 12px;
  }
  text.diagram-arrow {
    font-size: 16px;
  }
  text.label {
    text-anchor: start;
  }
  text.comment {
    font: italic 12px monospace;
  }
  g.non-terminal text {
    /*font-style: italic;*/
  }
  rect {
    stroke-width: 3;
    stroke: black;
    fill: hsl(120,100%,90%);
  }
  rect.group-box {
    stroke: gray;
    stroke-dasharray: 10 5;
    fill: none;
  }
  g.literal rect {
    fill: #fff;
  }
  path.diagram-text {
    stroke-width: 3;
    stroke: black;
    fill: white;
    cursor: help;
  }
  .decision path {
    fill: #ccc;
  }
  g.diagram-text:hover path.diagram-text {
    fill: #eee;
  }
  text.repeat-text {
    font: italic 12px monospace;
    text-anchor: end;
  }
  .repeat-box > rect.group-box {
    stroke: gray;
    stroke-width: 2;
    stroke-dasharray: 1 5;
    fill: none;
  }
  .delimiter > rect.group-box {
    stroke: gray;
    stroke-width: 2;
    stroke-dasharray: 1 5;
    fill: none;
  }

</style>
</svg>
