<svg class="railroad-diagram" width="956" height="112" viewBox="0 0 956 112" xmlns="http://www.w3.org/2000/svg" xmlns:xlink="http://www.w3.org/1999/xlink">
<g transform="translate(.5 .5)">
<g class="Start">
<path d="M20 54v20m0 -10h20"></path>
</g>
<path d="M40 64h10"></path>
<g class="Group rule">
<path d="M50 64h0"></path>
<path d="M906 64h0"></path>
<rect x="50" y="36" width="856" height="56" rx="10" ry="10" class="group-box"></rect>
<g class="Sequence">
<path d="M50 64h10"></path>
<path d="M896 64h10"></path>
<g class="Choice">
<path d="M60 64h0"></path>
<path d="M239 64h0"></path>
<path d="M60 64a10 10 0 0 0 10 -10v0a10 10 0 0 1 10 -10"></path>
<g class="Skip">
<path d="M80 44h139"></path>
</g>
<path d="M219 44a10 10 0 0 1 10 10v0a10 10 0 0 0 10 10"></path>
<path d="M60 64h20"></path>
<g class="non-terminal rule-ref">
<path d="M80 64h0"></path>
<path d="M219 64h0"></path>
<rect x="80" y="53" width="139" height="22"></rect>
<text x="149.5" y="68">EdgeIdentifier</text>
</g>
<path d="M219 64h20"></path>
</g>
<g class="Choice">
<path d="M239 64h0"></path>
<path d="M384 64h0"></path>
<path d="M239 64a10 10 0 0 0 10 -10v0a10 10 0 0 1 10 -10"></path>
<g class="Skip">
<path d="M259 44h105"></path>
</g>
<path d="M364 44a10 10 0 0 1 10 10v0a10 10 0 0 0 10 10"></path>
<path d="M239 64h20"></path>
<g class="non-terminal rule-ref">
<path d="M259 64h0"></path>
<path d="M364 64h0"></path>
<rect x="259" y="53" width="105" height="22"></rect>
<text x="311.5" y="68">Identifier</text>
</g>
<path d="M364 64h20"></path>
</g>
<path d="M384 64h10"></path>
<path d="M490.5 64h10"></path>
<g class="non-terminal rule-ref">
<path d="M394 64h0"></path>
<path d="M490.5 64h0"></path>
<rect x="394" y="53" width="96.5" height="22"></rect>
<text x="442.25" y="68">Direction</text>
</g>
<path d="M500.5 64h10"></path>
<path d="M615.5 64h10"></path>
<g class="non-terminal rule-ref">
<path d="M510.5 64h0"></path>
<path d="M615.5 64h0"></path>
<rect x="510.5" y="53" width="105" height="22"></rect>
<text x="563" y="68">Identifier</text>
</g>
<g class="Choice">
<path d="M625.5 64h0"></path>
<path d="M748 64h0"></path>
<path d="M625.5 64a10 10 0 0 0 10 -10v0a10 10 0 0 1 10 -10"></path>
<g class="Skip">
<path d="M645.5 44h82.5"></path>
</g>
<path d="M728 44a10 10 0 0 1 10 10v0a10 10 0 0 0 10 10"></path>
<path d="M625.5 64h20"></path>
<g class="OneOrMore">
<path d="M645.5 64h0"></path>
<path d="M728 64h0"></path>
<path d="M655.5 64a10 10 0 0 0 -10 10v0a10 10 0 0 0 10 10"></path>
<g class="Skip">
<path d="M655.5 84h62.5"></path>
</g>
<path d="M718 84a10 10 0 0 0 10 -10v0a10 10 0 0 0 -10 -10"></path>
<path d="M645.5 64h10"></path>
<path d="M718 64h10"></path>
<g class="non-terminal rule-ref">
<path d="M655.5 64h0"></path>
<path d="M718 64h0"></path>
<rect x="655.5" y="53" width="62.5" height="22"></rect>
<text x="686.75" y="68">Label</text>
</g>
</g>
<path d="M728 64h20"></path>
</g>
<g class="Choice">
<path d="M748 64h0"></path>
<path d="M896 64h0"></path>
<path d="M748 64a10 10 0 0 0 10 -10v0a10 10 0 0 1 10 -10"></path>
<g class="Skip">
<path d="M768 44h108"></path>
</g>
<path d="M876 44a10 10 0 0 1 10 10v0a10 10 0 0 0 10 10"></path>
<path d="M748 64h20"></path>
<g class="OneOrMore">
<path d="M768 64h0"></path>
<path d="M876 64h0"></path>
<path d="M778 64a10 10 0 0 0 -10 10v0a10 10 0 0 0 10 10"></path>
<g class="Skip">
<path d="M778 84h88"></path>
</g>
<path d="M866 84a10 10 0 0 0 10 -10v0a10 10 0 0 0 -10 -10"></path>
<path d="M768 64h10"></path>
<path d="M866 64h10"></path>
<g class="non-terminal rule-ref">
<path d="M778 64h0"></path>
<path d="M866 64h0"></path>
<rect x="778" y="53" width="88" height="22"></rect>
<text x="822" y="68">Property</text>
</g>
</g>
<path d="M876 64h20"></path>
</g>
</g>
<g class="comment">
<path d="M50 28h0"></path>
<path d="M88 28h0"></path>
<text x="69" y="33" class="comment">Edge</text>
</g>
</g>
<path d="M906 64h10"></path>
<path class="End" d="M 916 64 h 20 m 0 -10 v 20"></path>
</g>
<style>  svg {
    background-color: hsl(30,20%,95%);
  }
  path {
    stroke-width: 3;
    stroke: black;
    fill: rgba(0,0,0,0);
  }
  text {
    font: bold 14px monospace;
    text-anchor: middle;
    white-space: pre;
  }
  text.diagram-text {
    font-size: 12px;
  }
  text.diagram-arrow {
    font-size: 16px;
  }
  text.label {
    text-anchor: start;
  }
  text.comment {
    font: italic 12px monospace;
  }
  g.non-terminal text {
    /*font-style: italic;*/
  }
  rect {
    stroke-width: 3;
    stroke: black;
    fill: hsl(120,100%,90%);
  }
  rect.group-box {
    stroke: gray;
    stroke-dasharray: 10 5;
    fill: none;
  }
  g.literal rect {
    fill: #fff;
  }
  path.diagram-text {
    stroke-width: 3;
    stroke: black;
    fill: white;
    cursor: help;
  }
  .decision path {
    fill: #ccc;
  }
  g.diagram-text:hover path.diagram-text {
    fill: #eee;
  }
  text.repeat-text {
    font: italic 12px monospace;
    text-anchor: end;
  }
  .repeat-box > rect.group-box {
    stroke: gray;
    stroke-width: 2;
    stroke-dasharray: 1 5;
    fill: none;
  }
  .delimiter > rect.group-box {
    stroke: gray;
    stroke-width: 2;
    stroke-dasharray: 1 5;
    fill: none;
  }

</style>
</svg>
