<svg class="railroad-diagram" width="634" height="237" viewBox="0 0 634 237" xmlns="http://www.w3.org/2000/svg" xmlns:xlink="http://www.w3.org/1999/xlink">
<g transform="translate(.5 .5)">
<g class="Start">
<path d="M20 54v20m0 -10h20"></path>
</g>
<path d="M40 64h10"></path>
<g class="Group rule">
<path d="M50 64h0"></path>
<path d="M584 64h0"></path>
<rect x="50" y="36" width="534" height="181" rx="10" ry="10" class="group-box"></rect>
<g class="Choice">
<path d="M50 64h0"></path>
<path d="M584 64h0"></path>
<path d="M50 64h20"></path>
<g class="Sequence">
<path d="M70 64h93.5"></path>
<path d="M470.5 64h93.5"></path>
<path d="M319.5 64h10"></path>
<g class="non-terminal rule-ref">
<path d="M163.5 64h0"></path>
<path d="M319.5 64h0"></path>
<rect x="163.5" y="53" width="156" height="22"></rect>
<text x="241.5" y="68">QuotedIdentifier</text>
</g>
<g class="Choice">
<path d="M329.5 64h0"></path>
<path d="M432 64h0"></path>
<path d="M329.5 64a10 10 0 0 0 10 -10v0a10 10 0 0 1 10 -10"></path>
<g class="Skip">
<path d="M349.5 44h62.5"></path>
</g>
<path d="M412 44a10 10 0 0 1 10 10v0a10 10 0 0 0 10 10"></path>
<path d="M329.5 64h20"></path>
<g class="non-terminal rule-ref">
<path d="M349.5 64h0"></path>
<path d="M412 64h0"></path>
<rect x="349.5" y="53" width="62.5" height="22"></rect>
<text x="380.75" y="68">Space</text>
</g>
<path d="M412 64h20"></path>
</g>
<path d="M432 64h10"></path>
<g class="terminal literal">
<path d="M442 64h0"></path>
<path d="M470.5 64h0"></path>
<rect x="442" y="53" width="28.5" height="22" rx="10" ry="10"></rect>
<text x="456.25" y="68">:</text>
</g>
</g>
<path d="M564 64h20"></path>
<path d="M50 64a10 10 0 0 1 10 10v10a10 10 0 0 0 10 10"></path>
<g class="Sequence">
<path d="M70 94h95"></path>
<path d="M469 94h95"></path>
<path d="M338 94h10"></path>
<g class="non-terminal rule-ref">
<path d="M165 94h0"></path>
<path d="M338 94h0"></path>
<rect x="165" y="83" width="173" height="22"></rect>
<text x="251.5" y="98">UnquotedIdentifier</text>
</g>
<path d="M348 94h10"></path>
<path d="M420.5 94h10"></path>
<g class="non-terminal rule-ref">
<path d="M358 94h0"></path>
<path d="M420.5 94h0"></path>
<rect x="358" y="83" width="62.5" height="22"></rect>
<text x="389.25" y="98">Space</text>
</g>
<path d="M430.5 94h10"></path>
<g class="terminal literal">
<path d="M440.5 94h0"></path>
<path d="M469 94h0"></path>
<rect x="440.5" y="83" width="28.5" height="22" rx="10" ry="10"></rect>
<text x="454.75" y="98">:</text>
</g>
</g>
<path d="M564 94a10 10 0 0 0 10 -10v-10a10 10 0 0 1 10 -10"></path>
<path d="M50 64a10 10 0 0 1 10 10v49a10 10 0 0 0 10 10"></path>
<g class="Sequence">
<path d="M70 133h0"></path>
<path d="M564 133h0"></path>
<path d="M507 133h10"></path>
<g class="Sequence">
<path d="M70 133h0"></path>
<path d="M507 133h0"></path>
<path d="M175 133h10"></path>
<g class="non-terminal rule-ref">
<path d="M70 133h0"></path>
<path d="M175 133h0"></path>
<rect x="70" y="122" width="105" height="22"></rect>
<text x="122.5" y="137">PlainStart</text>
</g>
<path d="M185 133h10"></path>
<g class="OneOrMore">
<path d="M195 133h0"></path>
<path d="M507 133h0"></path>
<path d="M205 133a10 10 0 0 0 -10 10v8a10 10 0 0 0 10 10"></path>
<g class="Skip">
<path d="M205 161h292"></path>
</g>
<path d="M497 161a10 10 0 0 0 10 -10v-8a10 10 0 0 0 -10 -10"></path>
<path d="M195 133h10"></path>
<path d="M497 133h10"></path>
<g class="Sequence">
<path d="M205 133h0"></path>
<path d="M497 133h0"></path>
<g class="Choice">
<path d="M205 133h0"></path>
<path d="M458.5 133h0"></path>
<path d="M205 133a10 10 0 0 0 10 -10v0a10 10 0 0 1 10 -10"></path>
<g class="Skip">
<path d="M225 113h213.5"></path>
</g>
<path d="M438.5 113a10 10 0 0 1 10 10v0a10 10 0 0 0 10 10"></path>
<path d="M205 133h20"></path>
<g class="OneOrMore">
<path d="M225 133h0"></path>
<path d="M438.5 133h0"></path>
<path d="M235 133a10 10 0 0 0 -10 10v0a10 10 0 0 0 10 10"></path>
<g class="Skip">
<path d="M235 153h193.5"></path>
</g>
<path d="M428.5 153a10 10 0 0 0 10 -10v0a10 10 0 0 0 -10 -10"></path>
<path d="M225 133h10"></path>
<path d="M428.5 133h10"></path>
<g class="Sequence">
<path d="M235 133h0"></path>
<path d="M428.5 133h0"></path>
<path d="M312 133h10"></path>
<g class="Sequence">
<path d="M235 133h0"></path>
<path d="M312 133h0"></path>
<path d="M263.5 133h10"></path>
<g class="decision simple-and">
<path d="M235 133h0"></path>
<path d="M263.5 133h0"></path>
<path d="M235 133v5.5l5.5 5.5h17.5l5.5 -5.5v-11l-5.5 -5.5h-17.5l-5.5 5.5v5.5"></path>
<text x="249.25" y="137">!</text>
</g>
<path d="M273.5 133h10"></path>
<g class="terminal literal">
<path d="M283.5 133h0"></path>
<path d="M312 133h0"></path>
<rect x="283.5" y="122" width="28.5" height="22" rx="10" ry="10"></rect>
<text x="297.75" y="137">:</text>
</g>
</g>
<path d="M322 133h10"></path>
<g class="non-terminal rule-ref">
<path d="M332 133h0"></path>
<path d="M428.5 133h0"></path>
<rect x="332" y="122" width="96.5" height="22"></rect>
<text x="380.25" y="137">PlainChar</text>
</g>
</g>
</g>
<path d="M438.5 133h20"></path>
</g>
<path d="M458.5 133h10"></path>
<g class="terminal literal">
<path d="M468.5 133h0"></path>
<path d="M497 133h0"></path>
<rect x="468.5" y="122" width="28.5" height="22" rx="10" ry="10"></rect>
<text x="482.75" y="137">:</text>
</g>
</g>
</g>
</g>
<path d="M517 133h10"></path>
<g class="non-terminal rule-ref">
<path d="M527 133h0"></path>
<path d="M564 133h0"></path>
<rect x="527" y="122" width="37" height="22"></rect>
<text x="545.5" y="137">WS</text>
</g>
</g>
<path d="M564 133a10 10 0 0 0 10 -10v-49a10 10 0 0 1 10 -10"></path>
<path d="M50 64a10 10 0 0 1 10 10v105a10 10 0 0 0 10 10"></path>
<g class="Sequence">
<path d="M70 189h38.5"></path>
<path d="M525.5 189h38.5"></path>
<path d="M477 189h10"></path>
<g class="Sequence">
<path d="M108.5 189h0"></path>
<path d="M477 189h0"></path>
<path d="M213.5 189h10"></path>
<g class="non-terminal rule-ref">
<path d="M108.5 189h0"></path>
<path d="M213.5 189h0"></path>
<rect x="108.5" y="178" width="105" height="22"></rect>
<text x="161" y="193">PlainStart</text>
</g>
<g class="Choice">
<path d="M223.5 189h0"></path>
<path d="M477 189h0"></path>
<path d="M223.5 189a10 10 0 0 0 10 -10v0a10 10 0 0 1 10 -10"></path>
<g class="Skip">
<path d="M243.5 169h213.5"></path>
</g>
<path d="M457 169a10 10 0 0 1 10 10v0a10 10 0 0 0 10 10"></path>
<path d="M223.5 189h20"></path>
<g class="OneOrMore">
<path d="M243.5 189h0"></path>
<path d="M457 189h0"></path>
<path d="M253.5 189a10 10 0 0 0 -10 10v0a10 10 0 0 0 10 10"></path>
<g class="Skip">
<path d="M253.5 209h193.5"></path>
</g>
<path d="M447 209a10 10 0 0 0 10 -10v0a10 10 0 0 0 -10 -10"></path>
<path d="M243.5 189h10"></path>
<path d="M447 189h10"></path>
<g class="Sequence">
<path d="M253.5 189h0"></path>
<path d="M447 189h0"></path>
<path d="M330.5 189h10"></path>
<g class="Sequence">
<path d="M253.5 189h0"></path>
<path d="M330.5 189h0"></path>
<path d="M282 189h10"></path>
<g class="decision simple-and">
<path d="M253.5 189h0"></path>
<path d="M282 189h0"></path>
<path d="M253.5 189v5.5l5.5 5.5h17.5l5.5 -5.5v-11l-5.5 -5.5h-17.5l-5.5 5.5v5.5"></path>
<text x="267.75" y="193">!</text>
</g>
<path d="M292 189h10"></path>
<g class="terminal literal">
<path d="M302 189h0"></path>
<path d="M330.5 189h0"></path>
<rect x="302" y="178" width="28.5" height="22" rx="10" ry="10"></rect>
<text x="316.25" y="193">:</text>
</g>
</g>
<path d="M340.5 189h10"></path>
<g class="non-terminal rule-ref">
<path d="M350.5 189h0"></path>
<path d="M447 189h0"></path>
<rect x="350.5" y="178" width="96.5" height="22"></rect>
<text x="398.75" y="193">PlainChar</text>
</g>
</g>
</g>
<path d="M457 189h20"></path>
</g>
</g>
<path d="M487 189h10"></path>
<g class="terminal literal">
<path d="M497 189h0"></path>
<path d="M525.5 189h0"></path>
<rect x="497" y="178" width="28.5" height="22" rx="10" ry="10"></rect>
<text x="511.25" y="193">:</text>
</g>
</g>
<path d="M564 189a10 10 0 0 0 10 -10v-105a10 10 0 0 1 10 -10"></path>
</g>
<g class="comment">
<path d="M50 28h0"></path>
<path d="M81 28h0"></path>
<text x="65.5" y="33" class="comment">Key</text>
</g>
</g>
<path d="M584 64h10"></path>
<path class="End" d="M 594 64 h 20 m 0 -10 v 20"></path>
</g>
<style>  svg {
    background-color: hsl(30,20%,95%);
  }
  path {
    stroke-width: 3;
    stroke: black;
    fill: rgba(0,0,0,0);
  }
  text {
    font: bold 14px monospace;
    text-anchor: middle;
    white-space: pre;
  }
  text.diagram-text {
    font-size: 12px;
  }
  text.diagram-arrow {
    font-size: 16px;
  }
  text.label {
    text-anchor: start;
  }
  text.comment {
    font: italic 12px monospace;
  }
  g.non-terminal text {
    /*font-style: italic;*/
  }
  rect {
    stroke-width: 3;
    stroke: black;
    fill: hsl(120,100%,90%);
  }
  rect.group-box {
    stroke: gray;
    stroke-dasharray: 10 5;
    fill: none;
  }
  g.literal rect {
    fill: #fff;
  }
  path.diagram-text {
    stroke-width: 3;
    stroke: black;
    fill: white;
    cursor: help;
  }
  .decision path {
    fill: #ccc;
  }
  g.diagram-text:hover path.diagram-text {
    fill: #eee;
  }
  text.repeat-text {
    font: italic 12px monospace;
    text-anchor: end;
  }
  .repeat-box > rect.group-box {
    stroke: gray;
    stroke-width: 2;
    stroke-dasharray: 1 5;
    fill: none;
  }
  .delimiter > rect.group-box {
    stroke: gray;
    stroke-width: 2;
    stroke-dasharray: 1 5;
    fill: none;
  }

</style>
</svg>
