<svg class="railroad-diagram" width="557" height="211" viewBox="0 0 557 211" xmlns="http://www.w3.org/2000/svg" xmlns:xlink="http://www.w3.org/1999/xlink">
<g transform="translate(.5 .5)">
<g class="Start">
<path d="M20 54v20m0 -10h20"></path>
</g>
<path d="M40 64h10"></path>
<g class="Group rule">
<path d="M50 64h0"></path>
<path d="M507 64h0"></path>
<rect x="50" y="36" width="457" height="155" rx="10" ry="10" class="group-box"></rect>
<g class="Choice">
<path d="M50 64h0"></path>
<path d="M507 64h0"></path>
<path d="M50 64h20"></path>
<g class="Sequence">
<path d="M70 64h55"></path>
<path d="M432 64h55"></path>
<path d="M281 64h10"></path>
<g class="non-terminal rule-ref">
<path d="M125 64h0"></path>
<path d="M281 64h0"></path>
<rect x="125" y="53" width="156" height="22"></rect>
<text x="203" y="68">QuotedIdentifier</text>
</g>
<g class="Choice">
<path d="M291 64h0"></path>
<path d="M393.5 64h0"></path>
<path d="M291 64a10 10 0 0 0 10 -10v0a10 10 0 0 1 10 -10"></path>
<g class="Skip">
<path d="M311 44h62.5"></path>
</g>
<path d="M373.5 44a10 10 0 0 1 10 10v0a10 10 0 0 0 10 10"></path>
<path d="M291 64h20"></path>
<g class="non-terminal rule-ref">
<path d="M311 64h0"></path>
<path d="M373.5 64h0"></path>
<rect x="311" y="53" width="62.5" height="22"></rect>
<text x="342.25" y="68">Space</text>
</g>
<path d="M373.5 64h20"></path>
</g>
<path d="M393.5 64h10"></path>
<g class="terminal literal">
<path d="M403.5 64h0"></path>
<path d="M432 64h0"></path>
<rect x="403.5" y="53" width="28.5" height="22" rx="10" ry="10"></rect>
<text x="417.75" y="68">:</text>
</g>
</g>
<path d="M487 64h20"></path>
<path d="M50 64a10 10 0 0 1 10 10v10a10 10 0 0 0 10 10"></path>
<g class="Sequence">
<path d="M70 94h56.5"></path>
<path d="M430.5 94h56.5"></path>
<path d="M299.5 94h10"></path>
<g class="non-terminal rule-ref">
<path d="M126.5 94h0"></path>
<path d="M299.5 94h0"></path>
<rect x="126.5" y="83" width="173" height="22"></rect>
<text x="213" y="98">UnquotedIdentifier</text>
</g>
<path d="M309.5 94h10"></path>
<path d="M382 94h10"></path>
<g class="non-terminal rule-ref">
<path d="M319.5 94h0"></path>
<path d="M382 94h0"></path>
<rect x="319.5" y="83" width="62.5" height="22"></rect>
<text x="350.75" y="98">Space</text>
</g>
<path d="M392 94h10"></path>
<g class="terminal literal">
<path d="M402 94h0"></path>
<path d="M430.5 94h0"></path>
<rect x="402" y="83" width="28.5" height="22" rx="10" ry="10"></rect>
<text x="416.25" y="98">:</text>
</g>
</g>
<path d="M487 94a10 10 0 0 0 10 -10v-10a10 10 0 0 1 10 -10"></path>
<path d="M50 64a10 10 0 0 1 10 10v40a10 10 0 0 0 10 10"></path>
<g class="non-terminal rule-ref">
<path d="M70 124h58.25"></path>
<path d="M428.75 124h58.25"></path>
<rect x="128.25" y="113" width="300.5" height="22"></rect>
<text x="278.5" y="128">UnquotedIdentifierFollowedByColon</text>
</g>
<path d="M487 124a10 10 0 0 0 10 -10v-40a10 10 0 0 1 10 -10"></path>
<path d="M50 64a10 10 0 0 1 10 10v79a10 10 0 0 0 10 10"></path>
<g class="Sequence">
<path d="M70 163h0"></path>
<path d="M487 163h0"></path>
<path d="M438.5 163h10"></path>
<g class="Sequence">
<path d="M70 163h0"></path>
<path d="M438.5 163h0"></path>
<path d="M175 163h10"></path>
<g class="non-terminal rule-ref">
<path d="M70 163h0"></path>
<path d="M175 163h0"></path>
<rect x="70" y="152" width="105" height="22"></rect>
<text x="122.5" y="167">PlainStart</text>
</g>
<g class="Choice">
<path d="M185 163h0"></path>
<path d="M438.5 163h0"></path>
<path d="M185 163a10 10 0 0 0 10 -10v0a10 10 0 0 1 10 -10"></path>
<g class="Skip">
<path d="M205 143h213.5"></path>
</g>
<path d="M418.5 143a10 10 0 0 1 10 10v0a10 10 0 0 0 10 10"></path>
<path d="M185 163h20"></path>
<g class="OneOrMore">
<path d="M205 163h0"></path>
<path d="M418.5 163h0"></path>
<path d="M215 163a10 10 0 0 0 -10 10v0a10 10 0 0 0 10 10"></path>
<g class="Skip">
<path d="M215 183h193.5"></path>
</g>
<path d="M408.5 183a10 10 0 0 0 10 -10v0a10 10 0 0 0 -10 -10"></path>
<path d="M205 163h10"></path>
<path d="M408.5 163h10"></path>
<g class="Sequence">
<path d="M215 163h0"></path>
<path d="M408.5 163h0"></path>
<path d="M292 163h10"></path>
<g class="Sequence">
<path d="M215 163h0"></path>
<path d="M292 163h0"></path>
<path d="M243.5 163h10"></path>
<g class="decision simple-and">
<path d="M215 163h0"></path>
<path d="M243.5 163h0"></path>
<path d="M215 163v5.5l5.5 5.5h17.5l5.5 -5.5v-11l-5.5 -5.5h-17.5l-5.5 5.5v5.5"></path>
<text x="229.25" y="167">!</text>
</g>
<path d="M253.5 163h10"></path>
<g class="terminal literal">
<path d="M263.5 163h0"></path>
<path d="M292 163h0"></path>
<rect x="263.5" y="152" width="28.5" height="22" rx="10" ry="10"></rect>
<text x="277.75" y="167">:</text>
</g>
</g>
<path d="M302 163h10"></path>
<g class="non-terminal rule-ref">
<path d="M312 163h0"></path>
<path d="M408.5 163h0"></path>
<rect x="312" y="152" width="96.5" height="22"></rect>
<text x="360.25" y="167">PlainChar</text>
</g>
</g>
</g>
<path d="M418.5 163h20"></path>
</g>
</g>
<path d="M448.5 163h10"></path>
<g class="terminal literal">
<path d="M458.5 163h0"></path>
<path d="M487 163h0"></path>
<rect x="458.5" y="152" width="28.5" height="22" rx="10" ry="10"></rect>
<text x="472.75" y="167">:</text>
</g>
</g>
<path d="M487 163a10 10 0 0 0 10 -10v-79a10 10 0 0 1 10 -10"></path>
</g>
<g class="comment">
<path d="M50 28h0"></path>
<path d="M81 28h0"></path>
<text x="65.5" y="33" class="comment">Key</text>
</g>
</g>
<path d="M507 64h10"></path>
<path class="End" d="M 517 64 h 20 m 0 -10 v 20"></path>
</g>
<style>  svg {
    background-color: hsl(30,20%,95%);
  }
  path {
    stroke-width: 3;
    stroke: black;
    fill: rgba(0,0,0,0);
  }
  text {
    font: bold 14px monospace;
    text-anchor: middle;
    white-space: pre;
  }
  text.diagram-text {
    font-size: 12px;
  }
  text.diagram-arrow {
    font-size: 16px;
  }
  text.label {
    text-anchor: start;
  }
  text.comment {
    font: italic 12px monospace;
  }
  g.non-terminal text {
    /*font-style: italic;*/
  }
  rect {
    stroke-width: 3;
    stroke: black;
    fill: hsl(120,100%,90%);
  }
  rect.group-box {
    stroke: gray;
    stroke-dasharray: 10 5;
    fill: none;
  }
  g.literal rect {
    fill: #fff;
  }
  path.diagram-text {
    stroke-width: 3;
    stroke: black;
    fill: white;
    cursor: help;
  }
  .decision path {
    fill: #ccc;
  }
  g.diagram-text:hover path.diagram-text {
    fill: #eee;
  }
  text.repeat-text {
    font: italic 12px monospace;
    text-anchor: end;
  }
  .repeat-box > rect.group-box {
    stroke: gray;
    stroke-width: 2;
    stroke-dasharray: 1 5;
    fill: none;
  }
  .delimiter > rect.group-box {
    stroke: gray;
    stroke-width: 2;
    stroke-dasharray: 1 5;
    fill: none;
  }

</style>
</svg>
