<svg class="railroad-diagram" width="508.5" height="193" viewBox="0 0 508.5 193" xmlns="http://www.w3.org/2000/svg" xmlns:xlink="http://www.w3.org/1999/xlink">
<g transform="translate(.5 .5)">
<g class="Start">
<path d="M20 54v20m0 -10h20"></path>
</g>
<path d="M40 64h10"></path>
<g class="Group rule">
<path d="M50 64h0"></path>
<path d="M458.5 64h0"></path>
<rect x="50" y="36" width="408.5" height="137" rx="10" ry="10" class="group-box"></rect>
<g class="Choice">
<path d="M50 64h0"></path>
<path d="M458.5 64h0"></path>
<path d="M50 64h20"></path>
<g class="Sequence">
<path d="M70 64h30.75"></path>
<path d="M407.75 64h30.75"></path>
<path d="M256.75 64h10"></path>
<g class="non-terminal rule-ref">
<path d="M100.75 64h0"></path>
<path d="M256.75 64h0"></path>
<rect x="100.75" y="53" width="156" height="22"></rect>
<text x="178.75" y="68">QuotedIdentifier</text>
</g>
<g class="Choice">
<path d="M266.75 64h0"></path>
<path d="M369.25 64h0"></path>
<path d="M266.75 64a10 10 0 0 0 10 -10v0a10 10 0 0 1 10 -10"></path>
<g class="Skip">
<path d="M286.75 44h62.5"></path>
</g>
<path d="M349.25 44a10 10 0 0 1 10 10v0a10 10 0 0 0 10 10"></path>
<path d="M266.75 64h20"></path>
<g class="non-terminal rule-ref">
<path d="M286.75 64h0"></path>
<path d="M349.25 64h0"></path>
<rect x="286.75" y="53" width="62.5" height="22"></rect>
<text x="318" y="68">Space</text>
</g>
<path d="M349.25 64h20"></path>
</g>
<path d="M369.25 64h10"></path>
<g class="terminal literal">
<path d="M379.25 64h0"></path>
<path d="M407.75 64h0"></path>
<rect x="379.25" y="53" width="28.5" height="22" rx="10" ry="10"></rect>
<text x="393.5" y="68">:</text>
</g>
</g>
<path d="M438.5 64h20"></path>
<path d="M50 64a10 10 0 0 1 10 10v10a10 10 0 0 0 10 10"></path>
<g class="Sequence">
<path d="M70 94h32.25"></path>
<path d="M406.25 94h32.25"></path>
<path d="M275.25 94h10"></path>
<g class="non-terminal rule-ref">
<path d="M102.25 94h0"></path>
<path d="M275.25 94h0"></path>
<rect x="102.25" y="83" width="173" height="22"></rect>
<text x="188.75" y="98">UnquotedIdentifier</text>
</g>
<path d="M285.25 94h10"></path>
<path d="M357.75 94h10"></path>
<g class="non-terminal rule-ref">
<path d="M295.25 94h0"></path>
<path d="M357.75 94h0"></path>
<rect x="295.25" y="83" width="62.5" height="22"></rect>
<text x="326.5" y="98">Space</text>
</g>
<path d="M367.75 94h10"></path>
<g class="terminal literal">
<path d="M377.75 94h0"></path>
<path d="M406.25 94h0"></path>
<rect x="377.75" y="83" width="28.5" height="22" rx="10" ry="10"></rect>
<text x="392" y="98">:</text>
</g>
</g>
<path d="M438.5 94a10 10 0 0 0 10 -10v-10a10 10 0 0 1 10 -10"></path>
<path d="M50 64a10 10 0 0 1 10 10v40a10 10 0 0 0 10 10"></path>
<g class="non-terminal rule-ref">
<path d="M70 124h0"></path>
<path d="M438.5 124h0"></path>
<rect x="70" y="113" width="368.5" height="22"></rect>
<text x="254.25" y="128">UnquotedIdentifierFollowedByColonAndSpace</text>
</g>
<path d="M438.5 124a10 10 0 0 0 10 -10v-40a10 10 0 0 1 10 -10"></path>
<path d="M50 64a10 10 0 0 1 10 10v70a10 10 0 0 0 10 10"></path>
<g class="Sequence">
<path d="M70 154h22.5"></path>
<path d="M416 154h22.5"></path>
<path d="M367.5 154h10"></path>
<g class="non-terminal rule-ref">
<path d="M92.5 154h0"></path>
<path d="M367.5 154h0"></path>
<rect x="92.5" y="143" width="275" height="22"></rect>
<text x="230" y="158">UnquotedIdentifierWithoutColon</text>
</g>
<path d="M377.5 154h10"></path>
<g class="terminal literal">
<path d="M387.5 154h0"></path>
<path d="M416 154h0"></path>
<rect x="387.5" y="143" width="28.5" height="22" rx="10" ry="10"></rect>
<text x="401.75" y="158">:</text>
</g>
</g>
<path d="M438.5 154a10 10 0 0 0 10 -10v-70a10 10 0 0 1 10 -10"></path>
</g>
<g class="comment">
<path d="M50 28h0"></path>
<path d="M81 28h0"></path>
<text x="65.5" y="33" class="comment">Key</text>
</g>
</g>
<path d="M458.5 64h10"></path>
<path class="End" d="M 468.5 64 h 20 m 0 -10 v 20"></path>
</g>
<style>  svg {
    background-color: hsl(30,20%,95%);
  }
  path {
    stroke-width: 3;
    stroke: black;
    fill: rgba(0,0,0,0);
  }
  text {
    font: bold 14px monospace;
    text-anchor: middle;
    white-space: pre;
  }
  text.diagram-text {
    font-size: 12px;
  }
  text.diagram-arrow {
    font-size: 16px;
  }
  text.label {
    text-anchor: start;
  }
  text.comment {
    font: italic 12px monospace;
  }
  g.non-terminal text {
    /*font-style: italic;*/
  }
  rect {
    stroke-width: 3;
    stroke: black;
    fill: hsl(120,100%,90%);
  }
  rect.group-box {
    stroke: gray;
    stroke-dasharray: 10 5;
    fill: none;
  }
  g.literal rect {
    fill: #fff;
  }
  path.diagram-text {
    stroke-width: 3;
    stroke: black;
    fill: white;
    cursor: help;
  }
  .decision path {
    fill: #ccc;
  }
  g.diagram-text:hover path.diagram-text {
    fill: #eee;
  }
  text.repeat-text {
    font: italic 12px monospace;
    text-anchor: end;
  }
  .repeat-box > rect.group-box {
    stroke: gray;
    stroke-width: 2;
    stroke-dasharray: 1 5;
    fill: none;
  }
  .delimiter > rect.group-box {
    stroke: gray;
    stroke-width: 2;
    stroke-dasharray: 1 5;
    fill: none;
  }

</style>
</svg>
