<svg class="railroad-diagram" width="769.5" height="149" viewBox="0 0 769.5 149" xmlns="http://www.w3.org/2000/svg" xmlns:xlink="http://www.w3.org/1999/xlink">
<g transform="translate(.5 .5)">
<g class="Start">
<path d="M20 62v20m0 -10h20"></path>
</g>
<path d="M40 72h10"></path>
<g class="Group rule">
<path d="M50 72h0"></path>
<path d="M719.5 72h0"></path>
<rect x="50" y="36" width="669.5" height="93" rx="10" ry="10" class="group-box"></rect>
<g class="Sequence">
<path d="M50 72h10"></path>
<path d="M709.5 72h10"></path>
<g class="Choice">
<path d="M60 72h0"></path>
<path d="M569 72h0"></path>
<path d="M60 72a10 10 0 0 0 10 -10v-8a10 10 0 0 1 10 -10"></path>
<g class="Skip">
<path d="M80 44h469"></path>
</g>
<path d="M549 44a10 10 0 0 1 10 10v8a10 10 0 0 0 10 10"></path>
<path d="M60 72h20"></path>
<g class="OneOrMore">
<path d="M80 72h0"></path>
<path d="M549 72h0"></path>
<path d="M90 72a10 10 0 0 0 -10 10v29a10 10 0 0 0 10 10"></path>
<g class="Skip">
<path d="M90 121h449"></path>
</g>
<path d="M539 121a10 10 0 0 0 10 -10v-29a10 10 0 0 0 -10 -10"></path>
<path d="M80 72h10"></path>
<path d="M539 72h10"></path>
<g class="Choice">
<path d="M90 72h0"></path>
<path d="M539 72h0"></path>
<path d="M90 72h20"></path>
<g class="Sequence">
<path d="M110 72h0"></path>
<path d="M519 72h0"></path>
<path d="M181 72h10"></path>
<g class="non-terminal rule-ref">
<path d="M110 72h0"></path>
<path d="M181 72h0"></path>
<rect x="110" y="61" width="71" height="22"></rect>
<text x="145.5" y="76">Entity</text>
</g>
<g class="Choice">
<path d="M191 72h0"></path>
<path d="M361.5 72h0"></path>
<path d="M191 72a10 10 0 0 0 10 -10v0a10 10 0 0 1 10 -10"></path>
<g class="Skip">
<path d="M211 52h130.5"></path>
</g>
<path d="M341.5 52a10 10 0 0 1 10 10v0a10 10 0 0 0 10 10"></path>
<path d="M191 72h20"></path>
<g class="non-terminal rule-ref">
<path d="M211 72h0"></path>
<path d="M341.5 72h0"></path>
<rect x="211" y="61" width="130.5" height="22"></rect>
<text x="276.25" y="76">TrailingSpace</text>
</g>
<path d="M341.5 72h20"></path>
</g>
<path d="M361.5 72h10"></path>
<g class="non-terminal rule-ref">
<path d="M371.5 72h0"></path>
<path d="M519 72h0"></path>
<rect x="371.5" y="61" width="147.5" height="22"></rect>
<text x="445.25" y="76">EntitySeparator</text>
</g>
</g>
<path d="M519 72h20"></path>
<path d="M90 72a10 10 0 0 1 10 10v10a10 10 0 0 0 10 10"></path>
<g class="Sequence">
<path d="M110 102h81"></path>
<path d="M438 102h81"></path>
<path d="M321.5 102h10"></path>
<g class="non-terminal rule-ref">
<path d="M191 102h0"></path>
<path d="M321.5 102h0"></path>
<rect x="191" y="91" width="130.5" height="22"></rect>
<text x="256.25" y="106">TrailingSpace</text>
</g>
<path d="M331.5 102h10"></path>
<g class="non-terminal rule-ref">
<path d="M341.5 102h0"></path>
<path d="M438 102h0"></path>
<rect x="341.5" y="91" width="96.5" height="22"></rect>
<text x="389.75" y="106">LineBreak</text>
</g>
</g>
<path d="M519 102a10 10 0 0 0 10 -10v-10a10 10 0 0 1 10 -10"></path>
</g>
</g>
<path d="M549 72h20"></path>
</g>
<path d="M569 72h10"></path>
<g class="non-terminal rule-ref">
<path d="M579 72h0"></path>
<path d="M709.5 72h0"></path>
<rect x="579" y="61" width="130.5" height="22"></rect>
<text x="644.25" y="76">TrailingSpace</text>
</g>
</g>
<g class="comment">
<path d="M50 28h0"></path>
<path d="M74 28h0"></path>
<text x="62" y="33" class="comment">PG</text>
</g>
</g>
<path d="M719.5 72h10"></path>
<path class="End" d="M 729.5 72 h 20 m 0 -10 v 20"></path>
</g>
<style>  svg {
    background-color: hsl(30,20%,95%);
  }
  path {
    stroke-width: 3;
    stroke: black;
    fill: rgba(0,0,0,0);
  }
  text {
    font: bold 14px monospace;
    text-anchor: middle;
    white-space: pre;
  }
  text.diagram-text {
    font-size: 12px;
  }
  text.diagram-arrow {
    font-size: 16px;
  }
  text.label {
    text-anchor: start;
  }
  text.comment {
    font: italic 12px monospace;
  }
  g.non-terminal text {
    /*font-style: italic;*/
  }
  rect {
    stroke-width: 3;
    stroke: black;
    fill: hsl(120,100%,90%);
  }
  rect.group-box {
    stroke: gray;
    stroke-dasharray: 10 5;
    fill: none;
  }
  g.literal rect {
    fill: #fff;
  }
  path.diagram-text {
    stroke-width: 3;
    stroke: black;
    fill: white;
    cursor: help;
  }
  .decision path {
    fill: #ccc;
  }
  g.diagram-text:hover path.diagram-text {
    fill: #eee;
  }
  text.repeat-text {
    font: italic 12px monospace;
    text-anchor: end;
  }
  .repeat-box > rect.group-box {
    stroke: gray;
    stroke-width: 2;
    stroke-dasharray: 1 5;
    fill: none;
  }
  .delimiter > rect.group-box {
    stroke: gray;
    stroke-width: 2;
    stroke-dasharray: 1 5;
    fill: none;
  }

</style>
</svg>
