<svg class="railroad-diagram" width="647.5" height="142" viewBox="0 0 647.5 142" xmlns="http://www.w3.org/2000/svg" xmlns:xlink="http://www.w3.org/1999/xlink">
<g transform="translate(.5 .5)">
<g class="Start">
<path d="M20 77v20m0 -10h20"></path>
</g>
<path d="M40 87h10"></path>
<g class="Group rule">
<path d="M50 87h0"></path>
<path d="M597.5 87h0"></path>
<rect x="50" y="36" width="547.5" height="86" rx="10" ry="10" class="group-box"></rect>
<g class="Sequence">
<path d="M50 87h10"></path>
<path d="M587.5 87h10"></path>
<path d="M324.5 87h10"></path>
<g class="Group rule">
<path d="M60 87h0"></path>
<path d="M324.5 87h0"></path>
<rect x="60" y="68" width="264.5" height="38" rx="10" ry="10" class="group-box"></rect>
<g class="Sequence">
<path d="M60 87h10"></path>
<path d="M314.5 87h10"></path>
<path d="M198 87h10"></path>
<g class="Sequence">
<path d="M70 87h0"></path>
<path d="M198 87h0"></path>
<path d="M98.5 87h10"></path>
<g class="decision simple-and">
<path d="M70 87h0"></path>
<path d="M98.5 87h0"></path>
<path d="M70 87v5.5l5.5 5.5h17.5l5.5 -5.5v-11l-5.5 -5.5h-17.5l-5.5 5.5v5.5"></path>
<text x="84.25" y="91">!</text>
</g>
<path d="M108.5 87h10"></path>
<g class="terminal class">
<path d="M118.5 87h0"></path>
<path d="M198 87h0"></path>
<rect x="118.5" y="76" width="79.5" height="22" rx="10" ry="10"></rect>
<text x="158.25" y="91">&#91;#:,\-&#93;</text>
</g>
</g>
<path d="M208 87h10"></path>
<g class="non-terminal rule-ref">
<path d="M218 87h0"></path>
<path d="M314.5 87h0"></path>
<rect x="218" y="76" width="96.5" height="22"></rect>
<text x="266.25" y="91">PlainChar</text>
</g>
</g>
<g class="comment">
<path d="M60 60h0"></path>
<path d="M140 60h0"></path>
<text x="100" y="65" class="comment">PlainStart</text>
</g>
</g>
<g class="Choice">
<path d="M334.5 87h0"></path>
<path d="M587.5 87h0"></path>
<path d="M334.5 87a10 10 0 0 0 10 -10v-23a10 10 0 0 1 10 -10"></path>
<g class="Skip">
<path d="M354.5 44h213"></path>
</g>
<path d="M567.5 44a10 10 0 0 1 10 10v23a10 10 0 0 0 10 10"></path>
<path d="M334.5 87h20"></path>
<g class="OneOrMore">
<path d="M354.5 87h0"></path>
<path d="M567.5 87h0"></path>
<path d="M364.5 87a10 10 0 0 0 -10 10v7a10 10 0 0 0 10 10"></path>
<g class="Skip">
<path d="M364.5 114h193"></path>
</g>
<path d="M557.5 114a10 10 0 0 0 10 -10v-7a10 10 0 0 0 -10 -10"></path>
<path d="M354.5 87h10"></path>
<path d="M557.5 87h10"></path>
<g class="Group rule">
<path d="M364.5 87h0"></path>
<path d="M557.5 87h0"></path>
<rect x="364.5" y="68" width="193" height="38" rx="10" ry="10" class="group-box"></rect>
<g class="terminal class">
<path d="M364.5 87h10"></path>
<path d="M547.5 87h10"></path>
<rect x="374.5" y="76" width="173" height="22" rx="10" ry="10"></rect>
<text x="461" y="91">&#91;^\0- &#60;>"{}|\^&#96;\\&#93;</text>
</g>
<g class="comment">
<path d="M364.5 60h0"></path>
<path d="M437.5 60h0"></path>
<text x="401" y="65" class="comment">PlainChar</text>
</g>
</g>
</g>
<path d="M567.5 87h20"></path>
</g>
</g>
<g class="comment">
<path d="M50 28h0"></path>
<path d="M186 28h0"></path>
<text x="118" y="33" class="comment">UnquotedIdentifier</text>
</g>
</g>
<path d="M597.5 87h10"></path>
<path class="End" d="M 607.5 87 h 20 m 0 -10 v 20"></path>
</g>
<style>  svg {
    background-color: hsl(30,20%,95%);
  }
  path {
    stroke-width: 3;
    stroke: black;
    fill: rgba(0,0,0,0);
  }
  text {
    font: bold 14px monospace;
    text-anchor: middle;
    white-space: pre;
  }
  text.diagram-text {
    font-size: 12px;
  }
  text.diagram-arrow {
    font-size: 16px;
  }
  text.label {
    text-anchor: start;
  }
  text.comment {
    font: italic 12px monospace;
  }
  g.non-terminal text {
    /*font-style: italic;*/
  }
  rect {
    stroke-width: 3;
    stroke: black;
    fill: hsl(120,100%,90%);
  }
  rect.group-box {
    stroke: gray;
    stroke-dasharray: 10 5;
    fill: none;
  }
  g.literal rect {
    fill: #fff;
  }
  path.diagram-text {
    stroke-width: 3;
    stroke: black;
    fill: white;
    cursor: help;
  }
  .decision path {
    fill: #ccc;
  }
  g.diagram-text:hover path.diagram-text {
    fill: #eee;
  }
  text.repeat-text {
    font: italic 12px monospace;
    text-anchor: end;
  }
  .repeat-box > rect.group-box {
    stroke: gray;
    stroke-width: 2;
    stroke-dasharray: 1 5;
    fill: none;
  }
  .delimiter > rect.group-box {
    stroke: gray;
    stroke-width: 2;
    stroke-dasharray: 1 5;
    fill: none;
  }

</style>
</svg>
