<svg class="railroad-diagram" width="321" height="163" viewBox="0 0 321 163" xmlns="http://www.w3.org/2000/svg" xmlns:xlink="http://www.w3.org/1999/xlink">
<g transform="translate(.5 .5)">
<g class="Start">
<path d="M20 54v20m0 -10h20"></path>
</g>
<path d="M40 64h10"></path>
<g class="Group rule">
<path d="M50 64h0"></path>
<path d="M271 64h0"></path>
<rect x="50" y="36" width="221" height="107" rx="10" ry="10" class="group-box"></rect>
<g class="Sequence">
<path d="M50 64h10"></path>
<path d="M261 64h10"></path>
<path d="M97 64h10"></path>
<g class="non-terminal rule-ref">
<path d="M60 64h0"></path>
<path d="M97 64h0"></path>
<rect x="60" y="53" width="37" height="22"></rect>
<text x="78.5" y="68">WS</text>
</g>
<g class="Choice">
<path d="M107 64h0"></path>
<path d="M184 64h0"></path>
<path d="M107 64h20"></path>
<g class="terminal literal">
<path d="M127 64h0"></path>
<path d="M164 64h0"></path>
<rect x="127" y="53" width="37" height="22" rx="10" ry="10"></rect>
<text x="145.5" y="68">-></text>
</g>
<path d="M164 64h20"></path>
<path d="M107 64a10 10 0 0 1 10 10v10a10 10 0 0 0 10 10"></path>
<g class="terminal literal">
<path d="M127 94h0"></path>
<path d="M164 94h0"></path>
<rect x="127" y="83" width="37" height="22" rx="10" ry="10"></rect>
<text x="145.5" y="98">&#60;-</text>
</g>
<path d="M164 94a10 10 0 0 0 10 -10v-10a10 10 0 0 1 10 -10"></path>
<path d="M107 64a10 10 0 0 1 10 10v40a10 10 0 0 0 10 10"></path>
<g class="terminal literal">
<path d="M127 124h0"></path>
<path d="M164 124h0"></path>
<rect x="127" y="113" width="37" height="22" rx="10" ry="10"></rect>
<text x="145.5" y="128">--</text>
</g>
<path d="M164 124a10 10 0 0 0 10 -10v-40a10 10 0 0 1 10 -10"></path>
</g>
<g class="Choice">
<path d="M184 64h0"></path>
<path d="M261 64h0"></path>
<path d="M184 64a10 10 0 0 0 10 -10v0a10 10 0 0 1 10 -10"></path>
<g class="Skip">
<path d="M204 44h37"></path>
</g>
<path d="M241 44a10 10 0 0 1 10 10v0a10 10 0 0 0 10 10"></path>
<path d="M184 64h20"></path>
<g class="non-terminal rule-ref">
<path d="M204 64h0"></path>
<path d="M241 64h0"></path>
<rect x="204" y="53" width="37" height="22"></rect>
<text x="222.5" y="68">WS</text>
</g>
<path d="M241 64h20"></path>
</g>
</g>
<g class="comment">
<path d="M50 28h0"></path>
<path d="M123 28h0"></path>
<text x="86.5" y="33" class="comment">Direction</text>
</g>
</g>
<path d="M271 64h10"></path>
<path class="End" d="M 281 64 h 20 m 0 -10 v 20"></path>
</g>
<style>  svg {
    background-color: hsl(30,20%,95%);
  }
  path {
    stroke-width: 3;
    stroke: black;
    fill: rgba(0,0,0,0);
  }
  text {
    font: bold 14px monospace;
    text-anchor: middle;
    white-space: pre;
  }
  text.diagram-text {
    font-size: 12px;
  }
  text.diagram-arrow {
    font-size: 16px;
  }
  text.label {
    text-anchor: start;
  }
  text.comment {
    font: italic 12px monospace;
  }
  g.non-terminal text {
    /*font-style: italic;*/
  }
  rect {
    stroke-width: 3;
    stroke: black;
    fill: hsl(120,100%,90%);
  }
  rect.group-box {
    stroke: gray;
    stroke-dasharray: 10 5;
    fill: none;
  }
  g.literal rect {
    fill: #fff;
  }
  path.diagram-text {
    stroke-width: 3;
    stroke: black;
    fill: white;
    cursor: help;
  }
  .decision path {
    fill: #ccc;
  }
  g.diagram-text:hover path.diagram-text {
    fill: #eee;
  }
  text.repeat-text {
    font: italic 12px monospace;
    text-anchor: end;
  }
  .repeat-box > rect.group-box {
    stroke: gray;
    stroke-width: 2;
    stroke-dasharray: 1 5;
    fill: none;
  }
  .delimiter > rect.group-box {
    stroke: gray;
    stroke-width: 2;
    stroke-dasharray: 1 5;
    fill: none;
  }

</style>
</svg>
