<svg class="railroad-diagram" width="622.5" height="189" viewBox="0 0 622.5 189" xmlns="http://www.w3.org/2000/svg" xmlns:xlink="http://www.w3.org/1999/xlink">
<g transform="translate(.5 .5)">
<g class="Start">
<path d="M20 54v20m0 -10h20"></path>
</g>
<path d="M40 64h10"></path>
<g class="Group rule">
<path d="M50 64h0"></path>
<path d="M572.5 64h0"></path>
<rect x="50" y="36" width="522.5" height="133" rx="10" ry="10" class="group-box"></rect>
<g class="Sequence">
<path d="M50 64h10"></path>
<path d="M562.5 64h10"></path>
<g class="Choice">
<path d="M60 64h0"></path>
<path d="M154 64h0"></path>
<path d="M60 64h20"></path>
<g class="non-terminal rule-ref">
<path d="M80 64h0"></path>
<path d="M134 64h0"></path>
<rect x="80" y="53" width="54" height="22"></rect>
<text x="107" y="68">Edge</text>
</g>
<path d="M134 64h20"></path>
<path d="M60 64a10 10 0 0 1 10 10v10a10 10 0 0 0 10 10"></path>
<g class="non-terminal rule-ref">
<path d="M80 94h0"></path>
<path d="M134 94h0"></path>
<rect x="80" y="83" width="54" height="22"></rect>
<text x="107" y="98">Node</text>
</g>
<path d="M134 94a10 10 0 0 0 10 -10v-10a10 10 0 0 1 10 -10"></path>
</g>
<g class="Choice">
<path d="M154 64h0"></path>
<path d="M562.5 64h0"></path>
<path d="M154 64h20"></path>
<g class="Sequence">
<path d="M174 64h37.5"></path>
<path d="M505 64h37.5"></path>
<g class="Choice">
<path d="M211.5 64h0"></path>
<path d="M334 64h0"></path>
<path d="M211.5 64a10 10 0 0 0 10 -10v0a10 10 0 0 1 10 -10"></path>
<g class="Skip">
<path d="M231.5 44h82.5"></path>
</g>
<path d="M314 44a10 10 0 0 1 10 10v0a10 10 0 0 0 10 10"></path>
<path d="M211.5 64h20"></path>
<g class="OneOrMore">
<path d="M231.5 64h0"></path>
<path d="M314 64h0"></path>
<path d="M241.5 64a10 10 0 0 0 -10 10v0a10 10 0 0 0 10 10"></path>
<g class="Skip">
<path d="M241.5 84h62.5"></path>
</g>
<path d="M304 84a10 10 0 0 0 10 -10v0a10 10 0 0 0 -10 -10"></path>
<path d="M231.5 64h10"></path>
<path d="M304 64h10"></path>
<g class="non-terminal rule-ref">
<path d="M241.5 64h0"></path>
<path d="M304 64h0"></path>
<rect x="241.5" y="53" width="62.5" height="22"></rect>
<text x="272.75" y="68">Space</text>
</g>
</g>
<path d="M314 64h20"></path>
</g>
<path d="M334 64h10"></path>
<path d="M372.5 64h10"></path>
<g class="terminal literal">
<path d="M344 64h0"></path>
<path d="M372.5 64h0"></path>
<rect x="344" y="53" width="28.5" height="22" rx="10" ry="10"></rect>
<text x="358.25" y="68">|</text>
</g>
<g class="Choice">
<path d="M382.5 64h0"></path>
<path d="M505 64h0"></path>
<path d="M382.5 64a10 10 0 0 0 10 -10v0a10 10 0 0 1 10 -10"></path>
<g class="Skip">
<path d="M402.5 44h82.5"></path>
</g>
<path d="M485 44a10 10 0 0 1 10 10v0a10 10 0 0 0 10 10"></path>
<path d="M382.5 64h20"></path>
<g class="OneOrMore">
<path d="M402.5 64h0"></path>
<path d="M485 64h0"></path>
<path d="M412.5 64a10 10 0 0 0 -10 10v0a10 10 0 0 0 10 10"></path>
<g class="Skip">
<path d="M412.5 84h62.5"></path>
</g>
<path d="M475 84a10 10 0 0 0 10 -10v0a10 10 0 0 0 -10 -10"></path>
<path d="M402.5 64h10"></path>
<path d="M475 64h10"></path>
<g class="non-terminal rule-ref">
<path d="M412.5 64h0"></path>
<path d="M475 64h0"></path>
<rect x="412.5" y="53" width="62.5" height="22"></rect>
<text x="443.75" y="68">Space</text>
</g>
</g>
<path d="M485 64h20"></path>
</g>
</g>
<path d="M542.5 64h20"></path>
<path d="M154 64a10 10 0 0 1 10 10v36a10 10 0 0 0 10 10"></path>
<g class="Sequence">
<path d="M174 120h0"></path>
<path d="M542.5 120h0"></path>
<g class="Choice">
<path d="M174 120h0"></path>
<path d="M406 120h0"></path>
<path d="M174 120a10 10 0 0 0 10 -10v-8a10 10 0 0 1 10 -10"></path>
<g class="Skip">
<path d="M194 92h192"></path>
</g>
<path d="M386 92a10 10 0 0 1 10 10v8a10 10 0 0 0 10 10"></path>
<path d="M174 120h20"></path>
<g class="Sequence">
<path d="M194 120h0"></path>
<path d="M386 120h0"></path>
<path d="M256.5 120h10"></path>
<g class="non-terminal rule-ref">
<path d="M194 120h0"></path>
<path d="M256.5 120h0"></path>
<rect x="194" y="109" width="62.5" height="22"></rect>
<text x="225.25" y="124">Space</text>
</g>
<g class="Choice">
<path d="M266.5 120h0"></path>
<path d="M386 120h0"></path>
<path d="M266.5 120a10 10 0 0 0 10 -10v0a10 10 0 0 1 10 -10"></path>
<g class="Skip">
<path d="M286.5 100h79.5"></path>
</g>
<path d="M366 100a10 10 0 0 1 10 10v0a10 10 0 0 0 10 10"></path>
<path d="M266.5 120h20"></path>
<g class="non-terminal rule-ref">
<path d="M286.5 120h0"></path>
<path d="M366 120h0"></path>
<rect x="286.5" y="109" width="79.5" height="22"></rect>
<text x="326.25" y="124">Comment</text>
</g>
<path d="M366 120h20"></path>
</g>
</g>
<path d="M386 120h20"></path>
</g>
<g class="Choice">
<path d="M406 120h0"></path>
<path d="M542.5 120h0"></path>
<path d="M406 120h20"></path>
<g class="non-terminal rule-ref">
<path d="M426 120h0"></path>
<path d="M522.5 120h0"></path>
<rect x="426" y="109" width="96.5" height="22"></rect>
<text x="474.25" y="124">LineBreak</text>
</g>
<path d="M522.5 120h20"></path>
<path d="M406 120a10 10 0 0 1 10 10v10a10 10 0 0 0 10 10"></path>
<g class="non-terminal rule-ref">
<path d="M426 150h25.5"></path>
<path d="M497 150h25.5"></path>
<rect x="451.5" y="139" width="45.5" height="22"></rect>
<text x="474.25" y="154">End</text>
</g>
<path d="M522.5 150a10 10 0 0 0 10 -10v-10a10 10 0 0 1 10 -10"></path>
</g>
</g>
<path d="M542.5 120a10 10 0 0 0 10 -10v-36a10 10 0 0 1 10 -10"></path>
</g>
</g>
<g class="comment">
<path d="M50 28h0"></path>
<path d="M102 28h0"></path>
<text x="76" y="33" class="comment">Entity</text>
</g>
</g>
<path d="M572.5 64h10"></path>
<path class="End" d="M 582.5 64 h 20 m 0 -10 v 20"></path>
</g>
<style>  svg {
    background-color: hsl(30,20%,95%);
  }
  path {
    stroke-width: 3;
    stroke: black;
    fill: rgba(0,0,0,0);
  }
  text {
    font: bold 14px monospace;
    text-anchor: middle;
    white-space: pre;
  }
  text.diagram-text {
    font-size: 12px;
  }
  text.diagram-arrow {
    font-size: 16px;
  }
  text.label {
    text-anchor: start;
  }
  text.comment {
    font: italic 12px monospace;
  }
  g.non-terminal text {
    /*font-style: italic;*/
  }
  rect {
    stroke-width: 3;
    stroke: black;
    fill: hsl(120,100%,90%);
  }
  rect.group-box {
    stroke: gray;
    stroke-dasharray: 10 5;
    fill: none;
  }
  g.literal rect {
    fill: #fff;
  }
  path.diagram-text {
    stroke-width: 3;
    stroke: black;
    fill: white;
    cursor: help;
  }
  .decision path {
    fill: #ccc;
  }
  g.diagram-text:hover path.diagram-text {
    fill: #eee;
  }
  text.repeat-text {
    font: italic 12px monospace;
    text-anchor: end;
  }
  .repeat-box > rect.group-box {
    stroke: gray;
    stroke-width: 2;
    stroke-dasharray: 1 5;
    fill: none;
  }
  .delimiter > rect.group-box {
    stroke: gray;
    stroke-width: 2;
    stroke-dasharray: 1 5;
    fill: none;
  }

</style>
</svg>
