<svg class="railroad-diagram" width="538" height="112" viewBox="0 0 538 112" xmlns="http://www.w3.org/2000/svg" xmlns:xlink="http://www.w3.org/1999/xlink">
<g transform="translate(.5 .5)">
<g class="Start">
<path d="M20 54v20m0 -10h20"></path>
</g>
<path d="M40 64h10"></path>
<g class="Group rule">
<path d="M50 64h0"></path>
<path d="M488 64h0"></path>
<rect x="50" y="36" width="438" height="56" rx="10" ry="10" class="group-box"></rect>
<g class="Sequence">
<path d="M50 64h10"></path>
<path d="M478 64h10"></path>
<path d="M156.5 64h10"></path>
<g class="non-terminal rule-ref">
<path d="M60 64h0"></path>
<path d="M156.5 64h0"></path>
<rect x="60" y="53" width="96.5" height="22"></rect>
<text x="108.25" y="68">LineBreak</text>
</g>
<g class="Choice">
<path d="M166.5 64h0"></path>
<path d="M405.5 64h0"></path>
<path d="M166.5 64a10 10 0 0 0 10 -10v0a10 10 0 0 1 10 -10"></path>
<g class="Skip">
<path d="M186.5 44h199"></path>
</g>
<path d="M385.5 44a10 10 0 0 1 10 10v0a10 10 0 0 0 10 10"></path>
<path d="M166.5 64h20"></path>
<g class="OneOrMore">
<path d="M186.5 64h0"></path>
<path d="M385.5 64h0"></path>
<path d="M196.5 64a10 10 0 0 0 -10 10v0a10 10 0 0 0 10 10"></path>
<g class="Skip">
<path d="M196.5 84h179"></path>
</g>
<path d="M375.5 84a10 10 0 0 0 10 -10v0a10 10 0 0 0 -10 -10"></path>
<path d="M186.5 64h10"></path>
<path d="M375.5 64h10"></path>
<g class="Sequence">
<path d="M196.5 64h0"></path>
<path d="M375.5 64h0"></path>
<path d="M259 64h10"></path>
<g class="non-terminal rule-ref">
<path d="M196.5 64h0"></path>
<path d="M259 64h0"></path>
<rect x="196.5" y="53" width="62.5" height="22"></rect>
<text x="227.75" y="68">Empty</text>
</g>
<path d="M269 64h10"></path>
<g class="non-terminal rule-ref">
<path d="M279 64h0"></path>
<path d="M375.5 64h0"></path>
<rect x="279" y="53" width="96.5" height="22"></rect>
<text x="327.25" y="68">LineBreak</text>
</g>
</g>
</g>
<path d="M385.5 64h20"></path>
</g>
<path d="M405.5 64h10"></path>
<g class="non-terminal rule-ref">
<path d="M415.5 64h0"></path>
<path d="M478 64h0"></path>
<rect x="415.5" y="53" width="62.5" height="22"></rect>
<text x="446.75" y="68">Space</text>
</g>
</g>
<g class="comment">
<path d="M50 28h0"></path>
<path d="M109 28h0"></path>
<text x="79.5" y="33" class="comment">Folding</text>
</g>
</g>
<path d="M488 64h10"></path>
<path class="End" d="M 498 64 h 20 m 0 -10 v 20"></path>
</g>
<style>  svg {
    background-color: hsl(30,20%,95%);
  }
  path {
    stroke-width: 3;
    stroke: black;
    fill: rgba(0,0,0,0);
  }
  text {
    font: bold 14px monospace;
    text-anchor: middle;
    white-space: pre;
  }
  text.diagram-text {
    font-size: 12px;
  }
  text.diagram-arrow {
    font-size: 16px;
  }
  text.label {
    text-anchor: start;
  }
  text.comment {
    font: italic 12px monospace;
  }
  g.non-terminal text {
    /*font-style: italic;*/
  }
  rect {
    stroke-width: 3;
    stroke: black;
    fill: hsl(120,100%,90%);
  }
  rect.group-box {
    stroke: gray;
    stroke-dasharray: 10 5;
    fill: none;
  }
  g.literal rect {
    fill: #fff;
  }
  path.diagram-text {
    stroke-width: 3;
    stroke: black;
    fill: white;
    cursor: help;
  }
  .decision path {
    fill: #ccc;
  }
  g.diagram-text:hover path.diagram-text {
    fill: #eee;
  }
  text.repeat-text {
    font: italic 12px monospace;
    text-anchor: end;
  }
  .repeat-box > rect.group-box {
    stroke: gray;
    stroke-width: 2;
    stroke-dasharray: 1 5;
    fill: none;
  }
  .delimiter > rect.group-box {
    stroke: gray;
    stroke-width: 2;
    stroke-dasharray: 1 5;
    fill: none;
  }

</style>
</svg>
