<svg class="railroad-diagram" width="497" height="189" viewBox="0 0 497 189" xmlns="http://www.w3.org/2000/svg" xmlns:xlink="http://www.w3.org/1999/xlink">
<g transform="translate(.5 .5)">
<g class="Start">
<path d="M20 54v20m0 -10h20"></path>
</g>
<path d="M40 64h10"></path>
<g class="Group rule">
<path d="M50 64h0"></path>
<path d="M447 64h0"></path>
<rect x="50" y="36" width="397" height="133" rx="10" ry="10" class="group-box"></rect>
<g class="Choice">
<path d="M50 64h0"></path>
<path d="M447 64h0"></path>
<path d="M50 64h20"></path>
<g class="Sequence">
<path d="M70 64h42"></path>
<path d="M385 64h42"></path>
<path d="M234 64h10"></path>
<g class="non-terminal rule-ref">
<path d="M112 64h0"></path>
<path d="M234 64h0"></path>
<rect x="112" y="53" width="122" height="22"></rect>
<text x="173" y="68">QuotedString</text>
</g>
<g class="Choice">
<path d="M244 64h0"></path>
<path d="M346.5 64h0"></path>
<path d="M244 64a10 10 0 0 0 10 -10v0a10 10 0 0 1 10 -10"></path>
<g class="Skip">
<path d="M264 44h62.5"></path>
</g>
<path d="M326.5 44a10 10 0 0 1 10 10v0a10 10 0 0 0 10 10"></path>
<path d="M244 64h20"></path>
<g class="non-terminal rule-ref">
<path d="M264 64h0"></path>
<path d="M326.5 64h0"></path>
<rect x="264" y="53" width="62.5" height="22"></rect>
<text x="295.25" y="68">Space</text>
</g>
<path d="M326.5 64h20"></path>
</g>
<path d="M346.5 64h10"></path>
<g class="terminal literal">
<path d="M356.5 64h0"></path>
<path d="M385 64h0"></path>
<rect x="356.5" y="53" width="28.5" height="22" rx="10" ry="10"></rect>
<text x="370.75" y="68">:</text>
</g>
</g>
<path d="M427 64h20"></path>
<path d="M50 64a10 10 0 0 1 10 10v10a10 10 0 0 0 10 10"></path>
<g class="Sequence">
<path d="M70 94h39.25"></path>
<path d="M387.75 94h39.25"></path>
<path d="M256.75 94h10"></path>
<g class="non-terminal rule-ref">
<path d="M109.25 94h0"></path>
<path d="M256.75 94h0"></path>
<rect x="109.25" y="83" width="147.5" height="22"></rect>
<text x="183" y="98">PlainIdentifier</text>
</g>
<path d="M266.75 94h10"></path>
<path d="M339.25 94h10"></path>
<g class="non-terminal rule-ref">
<path d="M276.75 94h0"></path>
<path d="M339.25 94h0"></path>
<rect x="276.75" y="83" width="62.5" height="22"></rect>
<text x="308" y="98">Space</text>
</g>
<path d="M349.25 94h10"></path>
<g class="terminal literal">
<path d="M359.25 94h0"></path>
<path d="M387.75 94h0"></path>
<rect x="359.25" y="83" width="28.5" height="22" rx="10" ry="10"></rect>
<text x="373.5" y="98">:</text>
</g>
</g>
<path d="M427 94a10 10 0 0 0 10 -10v-10a10 10 0 0 1 10 -10"></path>
<path d="M50 64a10 10 0 0 1 10 10v49a10 10 0 0 0 10 10"></path>
<g class="Sequence">
<path d="M70 133h0"></path>
<path d="M427 133h0"></path>
<path d="M166.5 133h10"></path>
<g class="non-terminal rule-ref">
<path d="M70 133h0"></path>
<path d="M166.5 133h0"></path>
<rect x="70" y="122" width="96.5" height="22"></rect>
<text x="118.25" y="137">NameStart</text>
</g>
<path d="M176.5 133h10"></path>
<g class="OneOrMore">
<path d="M186.5 133h0"></path>
<path d="M427 133h0"></path>
<path d="M196.5 133a10 10 0 0 0 -10 10v8a10 10 0 0 0 10 10"></path>
<g class="Skip">
<path d="M196.5 161h220.5"></path>
</g>
<path d="M417 161a10 10 0 0 0 10 -10v-8a10 10 0 0 0 -10 -10"></path>
<path d="M186.5 133h10"></path>
<path d="M417 133h10"></path>
<g class="Sequence">
<path d="M196.5 133h0"></path>
<path d="M417 133h0"></path>
<g class="Choice">
<path d="M196.5 133h0"></path>
<path d="M378.5 133h0"></path>
<path d="M196.5 133a10 10 0 0 0 10 -10v0a10 10 0 0 1 10 -10"></path>
<g class="Skip">
<path d="M216.5 113h142"></path>
</g>
<path d="M358.5 113a10 10 0 0 1 10 10v0a10 10 0 0 0 10 10"></path>
<path d="M196.5 133h20"></path>
<g class="OneOrMore">
<path d="M216.5 133h0"></path>
<path d="M358.5 133h0"></path>
<path d="M226.5 133a10 10 0 0 0 -10 10v0a10 10 0 0 0 10 10"></path>
<g class="Skip">
<path d="M226.5 153h122"></path>
</g>
<path d="M348.5 153a10 10 0 0 0 10 -10v0a10 10 0 0 0 -10 -10"></path>
<path d="M216.5 133h10"></path>
<path d="M348.5 133h10"></path>
<g class="terminal class">
<path d="M226.5 133h0"></path>
<path d="M348.5 133h0"></path>
<rect x="226.5" y="122" width="122" height="22" rx="10" ry="10"></rect>
<text x="287.5" y="137">&#91;^ \t\n\r:"&#93;</text>
</g>
</g>
<path d="M358.5 133h20"></path>
</g>
<path d="M378.5 133h10"></path>
<g class="terminal literal">
<path d="M388.5 133h0"></path>
<path d="M417 133h0"></path>
<rect x="388.5" y="122" width="28.5" height="22" rx="10" ry="10"></rect>
<text x="402.75" y="137">:</text>
</g>
</g>
</g>
</g>
<path d="M427 133a10 10 0 0 0 10 -10v-49a10 10 0 0 1 10 -10"></path>
</g>
<g class="comment">
<path d="M50 28h0"></path>
<path d="M81 28h0"></path>
<text x="65.5" y="33" class="comment">Key</text>
</g>
</g>
<path d="M447 64h10"></path>
<path class="End" d="M 457 64 h 20 m 0 -10 v 20"></path>
</g>
<style>  svg {
    background-color: hsl(30,20%,95%);
  }
  path {
    stroke-width: 3;
    stroke: black;
    fill: rgba(0,0,0,0);
  }
  text {
    font: bold 14px monospace;
    text-anchor: middle;
    white-space: pre;
  }
  text.diagram-text {
    font-size: 12px;
  }
  text.diagram-arrow {
    font-size: 16px;
  }
  text.label {
    text-anchor: start;
  }
  text.comment {
    font: italic 12px monospace;
  }
  g.non-terminal text {
    /*font-style: italic;*/
  }
  rect {
    stroke-width: 3;
    stroke: black;
    fill: hsl(120,100%,90%);
  }
  rect.group-box {
    stroke: gray;
    stroke-dasharray: 10 5;
    fill: none;
  }
  g.literal rect {
    fill: #fff;
  }
  path.diagram-text {
    stroke-width: 3;
    stroke: black;
    fill: white;
    cursor: help;
  }
  .decision path {
    fill: #ccc;
  }
  g.diagram-text:hover path.diagram-text {
    fill: #eee;
  }
  text.repeat-text {
    font: italic 12px monospace;
    text-anchor: end;
  }
  .repeat-box > rect.group-box {
    stroke: gray;
    stroke-width: 2;
    stroke-dasharray: 1 5;
    fill: none;
  }
  .delimiter > rect.group-box {
    stroke: gray;
    stroke-width: 2;
    stroke-dasharray: 1 5;
    fill: none;
  }

</style>
</svg>
