<svg class="railroad-diagram" width="577" height="189" viewBox="0 0 577 189" xmlns="http://www.w3.org/2000/svg" xmlns:xlink="http://www.w3.org/1999/xlink">
<g transform="translate(.5 .5)">
<g class="Start">
<path d="M20 54v20m0 -10h20"></path>
</g>
<path d="M40 64h10"></path>
<g class="Group rule">
<path d="M50 64h0"></path>
<path d="M527 64h0"></path>
<rect x="50" y="36" width="477" height="133" rx="10" ry="10" class="group-box"></rect>
<g class="Choice">
<path d="M50 64h0"></path>
<path d="M527 64h0"></path>
<path d="M50 64h20"></path>
<g class="Sequence">
<path d="M70 64h82"></path>
<path d="M425 64h82"></path>
<path d="M274 64h10"></path>
<g class="non-terminal rule-ref">
<path d="M152 64h0"></path>
<path d="M274 64h0"></path>
<rect x="152" y="53" width="122" height="22"></rect>
<text x="213" y="68">QuotedString</text>
</g>
<g class="Choice">
<path d="M284 64h0"></path>
<path d="M386.5 64h0"></path>
<path d="M284 64a10 10 0 0 0 10 -10v0a10 10 0 0 1 10 -10"></path>
<g class="Skip">
<path d="M304 44h62.5"></path>
</g>
<path d="M366.5 44a10 10 0 0 1 10 10v0a10 10 0 0 0 10 10"></path>
<path d="M284 64h20"></path>
<g class="non-terminal rule-ref">
<path d="M304 64h0"></path>
<path d="M366.5 64h0"></path>
<rect x="304" y="53" width="62.5" height="22"></rect>
<text x="335.25" y="68">Space</text>
</g>
<path d="M366.5 64h20"></path>
</g>
<path d="M386.5 64h10"></path>
<g class="terminal literal">
<path d="M396.5 64h0"></path>
<path d="M425 64h0"></path>
<rect x="396.5" y="53" width="28.5" height="22" rx="10" ry="10"></rect>
<text x="410.75" y="68">:</text>
</g>
</g>
<path d="M507 64h20"></path>
<path d="M50 64a10 10 0 0 1 10 10v10a10 10 0 0 0 10 10"></path>
<g class="Sequence">
<path d="M70 94h79.25"></path>
<path d="M427.75 94h79.25"></path>
<path d="M296.75 94h10"></path>
<g class="non-terminal rule-ref">
<path d="M149.25 94h0"></path>
<path d="M296.75 94h0"></path>
<rect x="149.25" y="83" width="147.5" height="22"></rect>
<text x="223" y="98">PlainIdentifier</text>
</g>
<path d="M306.75 94h10"></path>
<path d="M379.25 94h10"></path>
<g class="non-terminal rule-ref">
<path d="M316.75 94h0"></path>
<path d="M379.25 94h0"></path>
<rect x="316.75" y="83" width="62.5" height="22"></rect>
<text x="348" y="98">Space</text>
</g>
<path d="M389.25 94h10"></path>
<g class="terminal literal">
<path d="M399.25 94h0"></path>
<path d="M427.75 94h0"></path>
<rect x="399.25" y="83" width="28.5" height="22" rx="10" ry="10"></rect>
<text x="413.5" y="98">:</text>
</g>
</g>
<path d="M507 94a10 10 0 0 0 10 -10v-10a10 10 0 0 1 10 -10"></path>
<path d="M50 64a10 10 0 0 1 10 10v49a10 10 0 0 0 10 10"></path>
<g class="Sequence">
<path d="M70 133h0"></path>
<path d="M507 133h0"></path>
<path d="M175 133h10"></path>
<g class="non-terminal rule-ref">
<path d="M70 133h0"></path>
<path d="M175 133h0"></path>
<rect x="70" y="122" width="105" height="22"></rect>
<text x="122.5" y="137">PlainStart</text>
</g>
<path d="M185 133h10"></path>
<g class="OneOrMore">
<path d="M195 133h0"></path>
<path d="M507 133h0"></path>
<path d="M205 133a10 10 0 0 0 -10 10v8a10 10 0 0 0 10 10"></path>
<g class="Skip">
<path d="M205 161h292"></path>
</g>
<path d="M497 161a10 10 0 0 0 10 -10v-8a10 10 0 0 0 -10 -10"></path>
<path d="M195 133h10"></path>
<path d="M497 133h10"></path>
<g class="Sequence">
<path d="M205 133h0"></path>
<path d="M497 133h0"></path>
<g class="Choice">
<path d="M205 133h0"></path>
<path d="M458.5 133h0"></path>
<path d="M205 133a10 10 0 0 0 10 -10v0a10 10 0 0 1 10 -10"></path>
<g class="Skip">
<path d="M225 113h213.5"></path>
</g>
<path d="M438.5 113a10 10 0 0 1 10 10v0a10 10 0 0 0 10 10"></path>
<path d="M205 133h20"></path>
<g class="OneOrMore">
<path d="M225 133h0"></path>
<path d="M438.5 133h0"></path>
<path d="M235 133a10 10 0 0 0 -10 10v0a10 10 0 0 0 10 10"></path>
<g class="Skip">
<path d="M235 153h193.5"></path>
</g>
<path d="M428.5 153a10 10 0 0 0 10 -10v0a10 10 0 0 0 -10 -10"></path>
<path d="M225 133h10"></path>
<path d="M428.5 133h10"></path>
<g class="Sequence">
<path d="M235 133h0"></path>
<path d="M428.5 133h0"></path>
<path d="M312 133h10"></path>
<g class="Sequence">
<path d="M235 133h0"></path>
<path d="M312 133h0"></path>
<path d="M263.5 133h10"></path>
<g class="decision simple-and">
<path d="M235 133h0"></path>
<path d="M263.5 133h0"></path>
<path d="M235 133v5.5l5.5 5.5h17.5l5.5 -5.5v-11l-5.5 -5.5h-17.5l-5.5 5.5v5.5"></path>
<text x="249.25" y="137">!</text>
</g>
<path d="M273.5 133h10"></path>
<g class="terminal literal">
<path d="M283.5 133h0"></path>
<path d="M312 133h0"></path>
<rect x="283.5" y="122" width="28.5" height="22" rx="10" ry="10"></rect>
<text x="297.75" y="137">:</text>
</g>
</g>
<path d="M322 133h10"></path>
<g class="non-terminal rule-ref">
<path d="M332 133h0"></path>
<path d="M428.5 133h0"></path>
<rect x="332" y="122" width="96.5" height="22"></rect>
<text x="380.25" y="137">PlainChar</text>
</g>
</g>
</g>
<path d="M438.5 133h20"></path>
</g>
<path d="M458.5 133h10"></path>
<g class="terminal literal">
<path d="M468.5 133h0"></path>
<path d="M497 133h0"></path>
<rect x="468.5" y="122" width="28.5" height="22" rx="10" ry="10"></rect>
<text x="482.75" y="137">:</text>
</g>
</g>
</g>
</g>
<path d="M507 133a10 10 0 0 0 10 -10v-49a10 10 0 0 1 10 -10"></path>
</g>
<g class="comment">
<path d="M50 28h0"></path>
<path d="M81 28h0"></path>
<text x="65.5" y="33" class="comment">Key</text>
</g>
</g>
<path d="M527 64h10"></path>
<path class="End" d="M 537 64 h 20 m 0 -10 v 20"></path>
</g>
<style>  svg {
    background-color: hsl(30,20%,95%);
  }
  path {
    stroke-width: 3;
    stroke: black;
    fill: rgba(0,0,0,0);
  }
  text {
    font: bold 14px monospace;
    text-anchor: middle;
    white-space: pre;
  }
  text.diagram-text {
    font-size: 12px;
  }
  text.diagram-arrow {
    font-size: 16px;
  }
  text.label {
    text-anchor: start;
  }
  text.comment {
    font: italic 12px monospace;
  }
  g.non-terminal text {
    /*font-style: italic;*/
  }
  rect {
    stroke-width: 3;
    stroke: black;
    fill: hsl(120,100%,90%);
  }
  rect.group-box {
    stroke: gray;
    stroke-dasharray: 10 5;
    fill: none;
  }
  g.literal rect {
    fill: #fff;
  }
  path.diagram-text {
    stroke-width: 3;
    stroke: black;
    fill: white;
    cursor: help;
  }
  .decision path {
    fill: #ccc;
  }
  g.diagram-text:hover path.diagram-text {
    fill: #eee;
  }
  text.repeat-text {
    font: italic 12px monospace;
    text-anchor: end;
  }
  .repeat-box > rect.group-box {
    stroke: gray;
    stroke-width: 2;
    stroke-dasharray: 1 5;
    fill: none;
  }
  .delimiter > rect.group-box {
    stroke: gray;
    stroke-width: 2;
    stroke-dasharray: 1 5;
    fill: none;
  }

</style>
</svg>
