<svg class="railroad-diagram" width="391.5" height="133" viewBox="0 0 391.5 133" xmlns="http://www.w3.org/2000/svg" xmlns:xlink="http://www.w3.org/1999/xlink">
<g transform="translate(.5 .5)">
<g class="Start">
<path d="M20 54v20m0 -10h20"></path>
</g>
<path d="M40 64h10"></path>
<g class="Group rule">
<path d="M50 64h0"></path>
<path d="M341.5 64h0"></path>
<rect x="50" y="36" width="291.5" height="77" rx="10" ry="10" class="group-box"></rect>
<g class="Choice">
<path d="M50 64h0"></path>
<path d="M341.5 64h0"></path>
<path d="M50 64h20"></path>
<g class="Sequence">
<path d="M70 64h0"></path>
<path d="M321.5 64h0"></path>
<path d="M141 64h10"></path>
<g class="non-terminal rule-ref">
<path d="M70 64h0"></path>
<path d="M141 64h0"></path>
<rect x="70" y="53" width="71" height="22"></rect>
<text x="105.5" y="68">entity</text>
</g>
<g class="Choice">
<path d="M151 64h0"></path>
<path d="M321.5 64h0"></path>
<path d="M151 64a10 10 0 0 0 10 -10v0a10 10 0 0 1 10 -10"></path>
<g class="Skip">
<path d="M171 44h130.5"></path>
</g>
<path d="M301.5 44a10 10 0 0 1 10 10v0a10 10 0 0 0 10 10"></path>
<path d="M151 64h20"></path>
<g class="non-terminal rule-ref">
<path d="M171 64h0"></path>
<path d="M301.5 64h0"></path>
<rect x="171" y="53" width="130.5" height="22"></rect>
<text x="236.25" y="68">trailingSpace</text>
</g>
<path d="M301.5 64h20"></path>
</g>
</g>
<path d="M321.5 64h20"></path>
<path d="M50 64a10 10 0 0 1 10 10v10a10 10 0 0 0 10 10"></path>
<g class="non-terminal rule-ref">
<path d="M70 94h94.5"></path>
<path d="M227 94h94.5"></path>
<rect x="164.5" y="83" width="62.5" height="22"></rect>
<text x="195.75" y="98">empty</text>
</g>
<path d="M321.5 94a10 10 0 0 0 10 -10v-10a10 10 0 0 1 10 -10"></path>
</g>
<g class="comment">
<path d="M50 28h0"></path>
<path d="M88 28h0"></path>
<text x="69" y="33" class="comment">line</text>
</g>
</g>
<path d="M341.5 64h10"></path>
<path class="End" d="M 351.5 64 h 20 m 0 -10 v 20"></path>
</g>
<style>  svg {
    background-color: hsl(30,20%,95%);
  }
  path {
    stroke-width: 3;
    stroke: black;
    fill: rgba(0,0,0,0);
  }
  text {
    font: bold 14px monospace;
    text-anchor: middle;
    white-space: pre;
  }
  text.diagram-text {
    font-size: 12px;
  }
  text.diagram-arrow {
    font-size: 16px;
  }
  text.label {
    text-anchor: start;
  }
  text.comment {
    font: italic 12px monospace;
  }
  g.non-terminal text {
    /*font-style: italic;*/
  }
  rect {
    stroke-width: 3;
    stroke: black;
    fill: hsl(120,100%,90%);
  }
  rect.group-box {
    stroke: gray;
    stroke-dasharray: 10 5;
    fill: none;
  }
  g.literal rect {
    fill: #fff;
  }
  path.diagram-text {
    stroke-width: 3;
    stroke: black;
    fill: white;
    cursor: help;
  }
  .decision path {
    fill: #ccc;
  }
  g.diagram-text:hover path.diagram-text {
    fill: #eee;
  }
  text.repeat-text {
    font: italic 12px monospace;
    text-anchor: end;
  }
  .repeat-box > rect.group-box {
    stroke: gray;
    stroke-width: 2;
    stroke-dasharray: 1 5;
    fill: none;
  }
  .delimiter > rect.group-box {
    stroke: gray;
    stroke-width: 2;
    stroke-dasharray: 1 5;
    fill: none;
  }

</style>
</svg>
