<svg class="railroad-diagram" width="690" height="141" viewBox="0 0 690 141" xmlns="http://www.w3.org/2000/svg" xmlns:xlink="http://www.w3.org/1999/xlink">
<g transform="translate(.5 .5)">
<g class="Start">
<path d="M20 54v20m0 -10h20"></path>
</g>
<path d="M40 64h10"></path>
<g class="Group rule">
<path d="M50 64h0"></path>
<path d="M640 64h0"></path>
<rect x="50" y="36" width="590" height="85" rx="10" ry="10" class="group-box"></rect>
<g class="Sequence">
<path d="M50 64h10"></path>
<path d="M630 64h10"></path>
<g class="Choice">
<path d="M60 64h0"></path>
<path d="M415.5 64h0"></path>
<path d="M60 64a10 10 0 0 0 10 -10v0a10 10 0 0 1 10 -10"></path>
<g class="Skip">
<path d="M80 44h315.5"></path>
</g>
<path d="M395.5 44a10 10 0 0 1 10 10v0a10 10 0 0 0 10 10"></path>
<path d="M60 64h20"></path>
<g class="OneOrMore">
<path d="M80 64h0"></path>
<path d="M395.5 64h0"></path>
<path d="M90 64a10 10 0 0 0 -10 10v29a10 10 0 0 0 10 10"></path>
<g class="Skip">
<path d="M90 113h295.5"></path>
</g>
<path d="M385.5 113a10 10 0 0 0 10 -10v-29a10 10 0 0 0 -10 -10"></path>
<path d="M80 64h10"></path>
<path d="M385.5 64h10"></path>
<g class="Choice">
<path d="M90 64h0"></path>
<path d="M385.5 64h0"></path>
<path d="M90 64h20"></path>
<g class="non-terminal rule-ref">
<path d="M110 64h92.25"></path>
<path d="M273.25 64h92.25"></path>
<rect x="202.25" y="53" width="71" height="22"></rect>
<text x="237.75" y="68">Entity</text>
</g>
<path d="M365.5 64h20"></path>
<path d="M90 64a10 10 0 0 1 10 10v10a10 10 0 0 0 10 10"></path>
<g class="Sequence">
<path d="M110 94h0"></path>
<path d="M365.5 94h0"></path>
<path d="M249 94h10"></path>
<g class="non-terminal rule-ref">
<path d="M110 94h0"></path>
<path d="M249 94h0"></path>
<rect x="110" y="83" width="139" height="22"></rect>
<text x="179.5" y="98">IgnorableSpace</text>
</g>
<path d="M259 94h10"></path>
<g class="non-terminal rule-ref">
<path d="M269 94h0"></path>
<path d="M365.5 94h0"></path>
<rect x="269" y="83" width="96.5" height="22"></rect>
<text x="317.25" y="98">LineBreak</text>
</g>
</g>
<path d="M365.5 94a10 10 0 0 0 10 -10v-10a10 10 0 0 1 10 -10"></path>
</g>
</g>
<path d="M395.5 64h20"></path>
</g>
<path d="M415.5 64h10"></path>
<path d="M564.5 64h10"></path>
<g class="non-terminal rule-ref">
<path d="M425.5 64h0"></path>
<path d="M564.5 64h0"></path>
<rect x="425.5" y="53" width="139" height="22"></rect>
<text x="495" y="68">IgnorableSpace</text>
</g>
<path d="M574.5 64h10"></path>
<g class="non-terminal rule-ref">
<path d="M584.5 64h0"></path>
<path d="M630 64h0"></path>
<rect x="584.5" y="53" width="45.5" height="22"></rect>
<text x="607.25" y="68">End</text>
</g>
</g>
<g class="comment">
<path d="M50 28h0"></path>
<path d="M74 28h0"></path>
<text x="62" y="33" class="comment">PG</text>
</g>
</g>
<path d="M640 64h10"></path>
<path class="End" d="M 650 64 h 20 m 0 -10 v 20"></path>
</g>
<style>  svg {
    background-color: hsl(30,20%,95%);
  }
  path {
    stroke-width: 3;
    stroke: black;
    fill: rgba(0,0,0,0);
  }
  text {
    font: bold 14px monospace;
    text-anchor: middle;
    white-space: pre;
  }
  text.diagram-text {
    font-size: 12px;
  }
  text.diagram-arrow {
    font-size: 16px;
  }
  text.label {
    text-anchor: start;
  }
  text.comment {
    font: italic 12px monospace;
  }
  g.non-terminal text {
    /*font-style: italic;*/
  }
  rect {
    stroke-width: 3;
    stroke: black;
    fill: hsl(120,100%,90%);
  }
  rect.group-box {
    stroke: gray;
    stroke-dasharray: 10 5;
    fill: none;
  }
  g.literal rect {
    fill: #fff;
  }
  path.diagram-text {
    stroke-width: 3;
    stroke: black;
    fill: white;
    cursor: help;
  }
  .decision path {
    fill: #ccc;
  }
  g.diagram-text:hover path.diagram-text {
    fill: #eee;
  }
  text.repeat-text {
    font: italic 12px monospace;
    text-anchor: end;
  }
  .repeat-box > rect.group-box {
    stroke: gray;
    stroke-width: 2;
    stroke-dasharray: 1 5;
    fill: none;
  }
  .delimiter > rect.group-box {
    stroke: gray;
    stroke-width: 2;
    stroke-dasharray: 1 5;
    fill: none;
  }

</style>
</svg>
