<svg class="railroad-diagram" width="584.5" height="158" viewBox="0 0 584.5 158" xmlns="http://www.w3.org/2000/svg" xmlns:xlink="http://www.w3.org/1999/xlink">
<g transform="translate(.5 .5)">
<g class="Start">
<path d="M20 62v20m0 -10h20"></path>
</g>
<path d="M40 72h10"></path>
<g class="Group rule">
<path d="M50 72h0"></path>
<path d="M534.5 72h0"></path>
<rect x="50" y="36" width="484.5" height="102" rx="10" ry="10" class="group-box"></rect>
<g class="Sequence">
<path d="M50 72h10"></path>
<path d="M524.5 72h10"></path>
<g class="Choice">
<path d="M60 72h0"></path>
<path d="M469 72h0"></path>
<path d="M60 72a10 10 0 0 0 10 -10v-8a10 10 0 0 1 10 -10"></path>
<g class="Skip">
<path d="M80 44h369"></path>
</g>
<path d="M449 44a10 10 0 0 1 10 10v8a10 10 0 0 0 10 10"></path>
<path d="M60 72h20"></path>
<g class="Sequence">
<path d="M80 72h0"></path>
<path d="M449 72h0"></path>
<path d="M134 72h10"></path>
<g class="non-terminal rule-ref">
<path d="M80 72h0"></path>
<path d="M134 72h0"></path>
<rect x="80" y="61" width="54" height="22"></rect>
<text x="107" y="76">Line</text>
</g>
<g class="Choice">
<path d="M144 72h0"></path>
<path d="M449 72h0"></path>
<path d="M144 72a10 10 0 0 0 10 -10v0a10 10 0 0 1 10 -10"></path>
<g class="Skip">
<path d="M164 52h265"></path>
</g>
<path d="M429 52a10 10 0 0 1 10 10v0a10 10 0 0 0 10 10"></path>
<path d="M144 72h20"></path>
<g class="OneOrMore">
<path d="M164 72h0"></path>
<path d="M429 72h0"></path>
<path d="M174 72a10 10 0 0 0 -10 10v38a10 10 0 0 0 10 10"></path>
<g class="Skip">
<path d="M174 130h245"></path>
</g>
<path d="M419 130a10 10 0 0 0 10 -10v-38a10 10 0 0 0 -10 -10"></path>
<path d="M164 72h10"></path>
<path d="M419 72h10"></path>
<g class="Sequence">
<path d="M174 72h0"></path>
<path d="M419 72h0"></path>
<g class="Choice">
<path d="M174 72h0"></path>
<path d="M355 72h0"></path>
<path d="M174 72h20"></path>
<g class="non-terminal rule-ref">
<path d="M194 72h22.25"></path>
<path d="M312.75 72h22.25"></path>
<rect x="216.25" y="61" width="96.5" height="22"></rect>
<text x="264.5" y="76">LineBreak</text>
</g>
<path d="M335 72h20"></path>
<path d="M174 72a10 10 0 0 1 10 10v19a10 10 0 0 0 10 10"></path>
<g class="Sequence">
<path d="M194 111h0"></path>
<path d="M335 111h0"></path>
<path d="M222.5 111h10"></path>
<g class="terminal literal">
<path d="M194 111h0"></path>
<path d="M222.5 111h0"></path>
<rect x="194" y="100" width="28.5" height="22" rx="10" ry="10"></rect>
<text x="208.25" y="115">;</text>
</g>
<g class="Choice">
<path d="M232.5 111h0"></path>
<path d="M335 111h0"></path>
<path d="M232.5 111a10 10 0 0 0 10 -10v0a10 10 0 0 1 10 -10"></path>
<g class="Skip">
<path d="M252.5 91h62.5"></path>
</g>
<path d="M315 91a10 10 0 0 1 10 10v0a10 10 0 0 0 10 10"></path>
<path d="M232.5 111h20"></path>
<g class="non-terminal rule-ref">
<path d="M252.5 111h0"></path>
<path d="M315 111h0"></path>
<rect x="252.5" y="100" width="62.5" height="22"></rect>
<text x="283.75" y="115">Space</text>
</g>
<path d="M315 111h20"></path>
</g>
</g>
<path d="M335 111a10 10 0 0 0 10 -10v-19a10 10 0 0 1 10 -10"></path>
</g>
<path d="M355 72h10"></path>
<g class="non-terminal rule-ref">
<path d="M365 72h0"></path>
<path d="M419 72h0"></path>
<rect x="365" y="61" width="54" height="22"></rect>
<text x="392" y="76">Line</text>
</g>
</g>
</g>
<path d="M429 72h20"></path>
</g>
</g>
<path d="M449 72h20"></path>
</g>
<path d="M469 72h10"></path>
<g class="non-terminal rule-ref">
<path d="M479 72h0"></path>
<path d="M524.5 72h0"></path>
<rect x="479" y="61" width="45.5" height="22"></rect>
<text x="501.75" y="76">EOF</text>
</g>
</g>
<g class="comment">
<path d="M50 28h0"></path>
<path d="M74 28h0"></path>
<text x="62" y="33" class="comment">PG</text>
</g>
</g>
<path d="M534.5 72h10"></path>
<path class="End" d="M 544.5 72 h 20 m 0 -10 v 20"></path>
</g>
<style>  svg {
    background-color: hsl(30,20%,95%);
  }
  path {
    stroke-width: 3;
    stroke: black;
    fill: rgba(0,0,0,0);
  }
  text {
    font: bold 14px monospace;
    text-anchor: middle;
    white-space: pre;
  }
  text.diagram-text {
    font-size: 12px;
  }
  text.diagram-arrow {
    font-size: 16px;
  }
  text.label {
    text-anchor: start;
  }
  text.comment {
    font: italic 12px monospace;
  }
  g.non-terminal text {
    /*font-style: italic;*/
  }
  rect {
    stroke-width: 3;
    stroke: black;
    fill: hsl(120,100%,90%);
  }
  rect.group-box {
    stroke: gray;
    stroke-dasharray: 10 5;
    fill: none;
  }
  g.literal rect {
    fill: #fff;
  }
  path.diagram-text {
    stroke-width: 3;
    stroke: black;
    fill: white;
    cursor: help;
  }
  .decision path {
    fill: #ccc;
  }
  g.diagram-text:hover path.diagram-text {
    fill: #eee;
  }
  text.repeat-text {
    font: italic 12px monospace;
    text-anchor: end;
  }
  .repeat-box > rect.group-box {
    stroke: gray;
    stroke-width: 2;
    stroke-dasharray: 1 5;
    fill: none;
  }
  .delimiter > rect.group-box {
    stroke: gray;
    stroke-width: 2;
    stroke-dasharray: 1 5;
    fill: none;
  }

</style>
</svg>
