<svg class="railroad-diagram" width="851.5" height="128" viewBox="0 0 851.5 128" xmlns="http://www.w3.org/2000/svg" xmlns:xlink="http://www.w3.org/1999/xlink">
<g transform="translate(.5 .5)">
<g class="Start">
<path d="M20 62v20m0 -10h20"></path>
</g>
<path d="M40 72h10"></path>
<g class="Group rule">
<path d="M50 72h0"></path>
<path d="M801.5 72h0"></path>
<rect x="50" y="36" width="751.5" height="72" rx="10" ry="10" class="group-box"></rect>
<g class="Sequence">
<path d="M50 72h10"></path>
<path d="M791.5 72h10"></path>
<g class="Choice">
<path d="M60 72h0"></path>
<path d="M357.5 72h0"></path>
<path d="M60 72a10 10 0 0 0 10 -10v-8a10 10 0 0 1 10 -10"></path>
<g class="Skip">
<path d="M80 44h257.5"></path>
</g>
<path d="M337.5 44a10 10 0 0 1 10 10v8a10 10 0 0 0 10 10"></path>
<path d="M60 72h20"></path>
<g class="OneOrMore">
<path d="M80 72h0"></path>
<path d="M337.5 72h0"></path>
<path d="M90 72a10 10 0 0 0 -10 10v8a10 10 0 0 0 10 10"></path>
<g class="Skip">
<path d="M90 100h237.5"></path>
</g>
<path d="M327.5 100a10 10 0 0 0 10 -10v-8a10 10 0 0 0 -10 -10"></path>
<path d="M80 72h10"></path>
<path d="M327.5 72h10"></path>
<g class="Sequence">
<path d="M90 72h0"></path>
<path d="M327.5 72h0"></path>
<g class="Choice">
<path d="M90 72h0"></path>
<path d="M246.5 72h0"></path>
<path d="M90 72a10 10 0 0 0 10 -10v0a10 10 0 0 1 10 -10"></path>
<g class="Skip">
<path d="M110 52h116.5"></path>
</g>
<path d="M226.5 52a10 10 0 0 1 10 10v0a10 10 0 0 0 10 10"></path>
<path d="M90 72h20"></path>
<g class="OneOrMore">
<path d="M110 72h0"></path>
<path d="M226.5 72h0"></path>
<path d="M120 72a10 10 0 0 0 -10 10v0a10 10 0 0 0 10 10"></path>
<g class="Skip">
<path d="M120 92h96.5"></path>
</g>
<path d="M216.5 92a10 10 0 0 0 10 -10v0a10 10 0 0 0 -10 -10"></path>
<path d="M110 72h10"></path>
<path d="M216.5 72h10"></path>
<g class="non-terminal rule-ref">
<path d="M120 72h0"></path>
<path d="M216.5 72h0"></path>
<rect x="120" y="61" width="96.5" height="22"></rect>
<text x="168.25" y="76">EmptyLine</text>
</g>
</g>
<path d="M226.5 72h20"></path>
</g>
<path d="M246.5 72h10"></path>
<g class="non-terminal rule-ref">
<path d="M256.5 72h0"></path>
<path d="M327.5 72h0"></path>
<rect x="256.5" y="61" width="71" height="22"></rect>
<text x="292" y="76">Entity</text>
</g>
</g>
</g>
<path d="M337.5 72h20"></path>
</g>
<g class="Choice">
<path d="M357.5 72h0"></path>
<path d="M514 72h0"></path>
<path d="M357.5 72a10 10 0 0 0 10 -10v0a10 10 0 0 1 10 -10"></path>
<g class="Skip">
<path d="M377.5 52h116.5"></path>
</g>
<path d="M494 52a10 10 0 0 1 10 10v0a10 10 0 0 0 10 10"></path>
<path d="M357.5 72h20"></path>
<g class="OneOrMore">
<path d="M377.5 72h0"></path>
<path d="M494 72h0"></path>
<path d="M387.5 72a10 10 0 0 0 -10 10v0a10 10 0 0 0 10 10"></path>
<g class="Skip">
<path d="M387.5 92h96.5"></path>
</g>
<path d="M484 92a10 10 0 0 0 10 -10v0a10 10 0 0 0 -10 -10"></path>
<path d="M377.5 72h10"></path>
<path d="M484 72h10"></path>
<g class="non-terminal rule-ref">
<path d="M387.5 72h0"></path>
<path d="M484 72h0"></path>
<rect x="387.5" y="61" width="96.5" height="22"></rect>
<text x="435.75" y="76">EmptyLine</text>
</g>
</g>
<path d="M494 72h20"></path>
</g>
<g class="Choice">
<path d="M514 72h0"></path>
<path d="M616.5 72h0"></path>
<path d="M514 72a10 10 0 0 0 10 -10v0a10 10 0 0 1 10 -10"></path>
<g class="Skip">
<path d="M534 52h62.5"></path>
</g>
<path d="M596.5 52a10 10 0 0 1 10 10v0a10 10 0 0 0 10 10"></path>
<path d="M514 72h20"></path>
<g class="non-terminal rule-ref">
<path d="M534 72h0"></path>
<path d="M596.5 72h0"></path>
<rect x="534" y="61" width="62.5" height="22"></rect>
<text x="565.25" y="76">Space</text>
</g>
<path d="M596.5 72h20"></path>
</g>
<g class="Choice">
<path d="M616.5 72h0"></path>
<path d="M736 72h0"></path>
<path d="M616.5 72a10 10 0 0 0 10 -10v0a10 10 0 0 1 10 -10"></path>
<g class="Skip">
<path d="M636.5 52h79.5"></path>
</g>
<path d="M716 52a10 10 0 0 1 10 10v0a10 10 0 0 0 10 10"></path>
<path d="M616.5 72h20"></path>
<g class="non-terminal rule-ref">
<path d="M636.5 72h0"></path>
<path d="M716 72h0"></path>
<rect x="636.5" y="61" width="79.5" height="22"></rect>
<text x="676.25" y="76">Comment</text>
</g>
<path d="M716 72h20"></path>
</g>
<path d="M736 72h10"></path>
<g class="non-terminal rule-ref">
<path d="M746 72h0"></path>
<path d="M791.5 72h0"></path>
<rect x="746" y="61" width="45.5" height="22"></rect>
<text x="768.75" y="76">End</text>
</g>
</g>
<g class="comment">
<path d="M50 28h0"></path>
<path d="M74 28h0"></path>
<text x="62" y="33" class="comment">PG</text>
</g>
</g>
<path d="M801.5 72h10"></path>
<path class="End" d="M 811.5 72 h 20 m 0 -10 v 20"></path>
</g>
<style>  svg {
    background-color: hsl(30,20%,95%);
  }
  path {
    stroke-width: 3;
    stroke: black;
    fill: rgba(0,0,0,0);
  }
  text {
    font: bold 14px monospace;
    text-anchor: middle;
    white-space: pre;
  }
  text.diagram-text {
    font-size: 12px;
  }
  text.diagram-arrow {
    font-size: 16px;
  }
  text.label {
    text-anchor: start;
  }
  text.comment {
    font: italic 12px monospace;
  }
  g.non-terminal text {
    /*font-style: italic;*/
  }
  rect {
    stroke-width: 3;
    stroke: black;
    fill: hsl(120,100%,90%);
  }
  rect.group-box {
    stroke: gray;
    stroke-dasharray: 10 5;
    fill: none;
  }
  g.literal rect {
    fill: #fff;
  }
  path.diagram-text {
    stroke-width: 3;
    stroke: black;
    fill: white;
    cursor: help;
  }
  .decision path {
    fill: #ccc;
  }
  g.diagram-text:hover path.diagram-text {
    fill: #eee;
  }
  text.repeat-text {
    font: italic 12px monospace;
    text-anchor: end;
  }
  .repeat-box > rect.group-box {
    stroke: gray;
    stroke-width: 2;
    stroke-dasharray: 1 5;
    fill: none;
  }
  .delimiter > rect.group-box {
    stroke: gray;
    stroke-width: 2;
    stroke-dasharray: 1 5;
    fill: none;
  }

</style>
</svg>
