<svg class="railroad-diagram" width="479.5" height="127" viewBox="0 0 479.5 127" xmlns="http://www.w3.org/2000/svg" xmlns:xlink="http://www.w3.org/1999/xlink">
<g transform="translate(.5 .5)">
<g class="Start">
<path d="M20 69v20m0 -10h20"></path>
</g>
<path d="M40 79h10"></path>
<g class="Group rule">
<path d="M50 79h0"></path>
<path d="M429.5 79h0"></path>
<rect x="50" y="36" width="379.5" height="71" rx="10" ry="10" class="group-box"></rect>
<g class="Sequence">
<path d="M50 79h10"></path>
<path d="M419.5 79h10"></path>
<path d="M236 79h10"></path>
<g class="Group rule">
<path d="M60 79h0"></path>
<path d="M236 79h0"></path>
<rect x="60" y="60" width="176" height="38" rx="10" ry="10" class="group-box"></rect>
<g class="terminal class">
<path d="M60 79h10"></path>
<path d="M226 79h10"></path>
<rect x="70" y="68" width="156" height="22" rx="10" ry="10"></rect>
<text x="148" y="83">&#91;^ \t\n\r":(,;#&#93;</text>
</g>
<g class="comment">
<path d="M60 52h0"></path>
<path d="M133 52h0"></path>
<text x="96.5" y="57" class="comment">NameStart</text>
</g>
</g>
<g class="Choice">
<path d="M246 79h0"></path>
<path d="M419.5 79h0"></path>
<path d="M246 79a10 10 0 0 0 10 -10v0a10 10 0 0 1 10 -10"></path>
<g class="Skip">
<path d="M266 59h133.5"></path>
</g>
<path d="M399.5 59a10 10 0 0 1 10 10v0a10 10 0 0 0 10 10"></path>
<path d="M246 79h20"></path>
<g class="OneOrMore">
<path d="M266 79h0"></path>
<path d="M399.5 79h0"></path>
<path d="M276 79a10 10 0 0 0 -10 10v0a10 10 0 0 0 10 10"></path>
<g class="Skip">
<path d="M276 99h113.5"></path>
</g>
<path d="M389.5 99a10 10 0 0 0 10 -10v0a10 10 0 0 0 -10 -10"></path>
<path d="M266 79h10"></path>
<path d="M389.5 79h10"></path>
<g class="terminal class">
<path d="M276 79h0"></path>
<path d="M389.5 79h0"></path>
<rect x="276" y="68" width="113.5" height="22" rx="10" ry="10"></rect>
<text x="332.75" y="83">&#91;^ \t\n\r"&#93;</text>
</g>
</g>
<path d="M399.5 79h20"></path>
</g>
</g>
<g class="comment">
<path d="M50 28h0"></path>
<path d="M165 28h0"></path>
<text x="107.5" y="33" class="comment">PlainIdentifier</text>
</g>
</g>
<path d="M429.5 79h10"></path>
<path class="End" d="M 439.5 79 h 20 m 0 -10 v 20"></path>
</g>
<style>  svg {
    background-color: hsl(30,20%,95%);
  }
  path {
    stroke-width: 3;
    stroke: black;
    fill: rgba(0,0,0,0);
  }
  text {
    font: bold 14px monospace;
    text-anchor: middle;
    white-space: pre;
  }
  text.diagram-text {
    font-size: 12px;
  }
  text.diagram-arrow {
    font-size: 16px;
  }
  text.label {
    text-anchor: start;
  }
  text.comment {
    font: italic 12px monospace;
  }
  g.non-terminal text {
    /*font-style: italic;*/
  }
  rect {
    stroke-width: 3;
    stroke: black;
    fill: hsl(120,100%,90%);
  }
  rect.group-box {
    stroke: gray;
    stroke-dasharray: 10 5;
    fill: none;
  }
  g.literal rect {
    fill: #fff;
  }
  path.diagram-text {
    stroke-width: 3;
    stroke: black;
    fill: white;
    cursor: help;
  }
  .decision path {
    fill: #ccc;
  }
  g.diagram-text:hover path.diagram-text {
    fill: #eee;
  }
  text.repeat-text {
    font: italic 12px monospace;
    text-anchor: end;
  }
  .repeat-box > rect.group-box {
    stroke: gray;
    stroke-width: 2;
    stroke-dasharray: 1 5;
    fill: none;
  }
  .delimiter > rect.group-box {
    stroke: gray;
    stroke-width: 2;
    stroke-dasharray: 1 5;
    fill: none;
  }

</style>
</svg>
