<svg class="railroad-diagram" width="491" height="142" viewBox="0 0 491 142" xmlns="http://www.w3.org/2000/svg" xmlns:xlink="http://www.w3.org/1999/xlink">
<g transform="translate(.5 .5)">
<g class="Start">
<path d="M20 77v20m0 -10h20"></path>
</g>
<path d="M40 87h10"></path>
<g class="Group rule">
<path d="M50 87h0"></path>
<path d="M441 87h0"></path>
<rect x="50" y="36" width="391" height="86" rx="10" ry="10" class="group-box"></rect>
<g class="Sequence">
<path d="M50 87h10"></path>
<path d="M431 87h10"></path>
<path d="M227.5 87h10"></path>
<g class="Group rule">
<path d="M60 87h0"></path>
<path d="M227.5 87h0"></path>
<rect x="60" y="68" width="167.5" height="38" rx="10" ry="10" class="group-box"></rect>
<g class="terminal class">
<path d="M60 87h10"></path>
<path d="M217.5 87h10"></path>
<rect x="70" y="76" width="147.5" height="22" rx="10" ry="10"></rect>
<text x="143.75" y="91">&#91;^ \t\n\r":(,#&#93;</text>
</g>
<g class="comment">
<path d="M60 60h0"></path>
<path d="M133 60h0"></path>
<text x="96.5" y="65" class="comment">nameStart</text>
</g>
</g>
<g class="Choice">
<path d="M237.5 87h0"></path>
<path d="M431 87h0"></path>
<path d="M237.5 87a10 10 0 0 0 10 -10v-23a10 10 0 0 1 10 -10"></path>
<g class="Skip">
<path d="M257.5 44h153.5"></path>
</g>
<path d="M411 44a10 10 0 0 1 10 10v23a10 10 0 0 0 10 10"></path>
<path d="M237.5 87h20"></path>
<g class="OneOrMore">
<path d="M257.5 87h0"></path>
<path d="M411 87h0"></path>
<path d="M267.5 87a10 10 0 0 0 -10 10v7a10 10 0 0 0 10 10"></path>
<g class="Skip">
<path d="M267.5 114h133.5"></path>
</g>
<path d="M401 114a10 10 0 0 0 10 -10v-7a10 10 0 0 0 -10 -10"></path>
<path d="M257.5 87h10"></path>
<path d="M401 87h10"></path>
<g class="Group rule">
<path d="M267.5 87h0"></path>
<path d="M401 87h0"></path>
<rect x="267.5" y="68" width="133.5" height="38" rx="10" ry="10" class="group-box"></rect>
<g class="terminal class">
<path d="M267.5 87h10"></path>
<path d="M391 87h10"></path>
<rect x="277.5" y="76" width="113.5" height="22" rx="10" ry="10"></rect>
<text x="334.25" y="91">&#91;^ \t\n\r"&#93;</text>
</g>
<g class="comment">
<path d="M267.5 60h0"></path>
<path d="M319.5 60h0"></path>
<text x="293.5" y="65" class="comment">idChar</text>
</g>
</g>
</g>
<path d="M411 87h20"></path>
</g>
</g>
<g class="comment">
<path d="M50 28h0"></path>
<path d="M165 28h0"></path>
<text x="107.5" y="33" class="comment">plainIdentifier</text>
</g>
</g>
<path d="M441 87h10"></path>
<path class="End" d="M 451 87 h 20 m 0 -10 v 20"></path>
</g>
<style>  svg {
    background-color: hsl(30,20%,95%);
  }
  path {
    stroke-width: 3;
    stroke: black;
    fill: rgba(0,0,0,0);
  }
  text {
    font: bold 14px monospace;
    text-anchor: middle;
    white-space: pre;
  }
  text.diagram-text {
    font-size: 12px;
  }
  text.diagram-arrow {
    font-size: 16px;
  }
  text.label {
    text-anchor: start;
  }
  text.comment {
    font: italic 12px monospace;
  }
  g.non-terminal text {
    /*font-style: italic;*/
  }
  rect {
    stroke-width: 3;
    stroke: black;
    fill: hsl(120,100%,90%);
  }
  rect.group-box {
    stroke: gray;
    stroke-dasharray: 10 5;
    fill: none;
  }
  g.literal rect {
    fill: #fff;
  }
  path.diagram-text {
    stroke-width: 3;
    stroke: black;
    fill: white;
    cursor: help;
  }
  .decision path {
    fill: #ccc;
  }
  g.diagram-text:hover path.diagram-text {
    fill: #eee;
  }
  text.repeat-text {
    font: italic 12px monospace;
    text-anchor: end;
  }
  .repeat-box > rect.group-box {
    stroke: gray;
    stroke-width: 2;
    stroke-dasharray: 1 5;
    fill: none;
  }
  .delimiter > rect.group-box {
    stroke: gray;
    stroke-width: 2;
    stroke-dasharray: 1 5;
    fill: none;
  }

</style>
</svg>
