<svg class="railroad-diagram" width="697" height="588" viewBox="0 0 697 588" xmlns="http://www.w3.org/2000/svg" xmlns:xlink="http://www.w3.org/1999/xlink">
<g transform="translate(.5 .5)">
<g class="Start">
<path d="M20 101v20m0 -10h20"></path>
</g>
<path d="M40 111h10"></path>
<g class="Group rule">
<path d="M50 111h0"></path>
<path d="M647 111h0"></path>
<rect x="50" y="36" width="597" height="532" rx="10" ry="10" class="group-box"></rect>
<g class="Sequence">
<path d="M50 111h10"></path>
<path d="M637 111h10"></path>
<path d="M97 111h10"></path>
<g class="terminal literal">
<path d="M60 111h0"></path>
<path d="M97 111h0"></path>
<rect x="60" y="100" width="37" height="22" rx="10" ry="10"></rect>
<text x="78.5" y="115">\"</text>
</g>
<g class="Choice">
<path d="M107 111h0"></path>
<path d="M590 111h0"></path>
<path d="M107 111a10 10 0 0 0 10 -10v-47a10 10 0 0 1 10 -10"></path>
<g class="Skip">
<path d="M127 44h443"></path>
</g>
<path d="M570 44a10 10 0 0 1 10 10v47a10 10 0 0 0 10 10"></path>
<path d="M107 111h20"></path>
<g class="OneOrMore">
<path d="M127 111h0"></path>
<path d="M570 111h0"></path>
<path d="M137 111a10 10 0 0 0 -10 10v429a10 10 0 0 0 10 10"></path>
<g class="Skip">
<path d="M137 560h423"></path>
</g>
<path d="M560 560a10 10 0 0 0 10 -10v-429a10 10 0 0 0 -10 -10"></path>
<path d="M127 111h10"></path>
<path d="M560 111h10"></path>
<g class="Group rule">
<path d="M137 111h0"></path>
<path d="M560 111h0"></path>
<rect x="137" y="68" width="423" height="484" rx="10" ry="10" class="group-box"></rect>
<g class="Choice">
<path d="M137 111h0"></path>
<path d="M560 111h0"></path>
<path d="M137 111h20"></path>
<g class="Group rule">
<path d="M157 111h116.25"></path>
<path d="M423.75 111h116.25"></path>
<rect x="273.25" y="92" width="150.5" height="38" rx="10" ry="10" class="group-box"></rect>
<g class="terminal class">
<path d="M273.25 111h10"></path>
<path d="M413.75 111h10"></path>
<rect x="283.25" y="100" width="130.5" height="22" rx="10" ry="10"></rect>
<text x="348.5" y="115">&#91;^\0-\x1F"\\&#93;</text>
</g>
<g class="comment">
<path d="M273.25 84h0"></path>
<path d="M346.25 84h0"></path>
<text x="309.75" y="89" class="comment">unescaped</text>
</g>
</g>
<path d="M540 111h20"></path>
<path d="M137 111a10 10 0 0 1 10 10v42a10 10 0 0 0 10 10"></path>
<g class="Group rule">
<path d="M157 173h0"></path>
<path d="M540 173h0"></path>
<rect x="157" y="154" width="383" height="390" rx="10" ry="10" class="group-box"></rect>
<g class="Sequence">
<path d="M157 173h10"></path>
<path d="M530 173h10"></path>
<path d="M204 173h10"></path>
<g class="terminal literal">
<path d="M167 173h0"></path>
<path d="M204 173h0"></path>
<rect x="167" y="162" width="37" height="22" rx="10" ry="10"></rect>
<text x="185.5" y="177">\\</text>
</g>
<g class="Choice">
<path d="M214 173h0"></path>
<path d="M530 173h0"></path>
<path d="M214 173h20"></path>
<g class="terminal literal">
<path d="M234 173h119.5"></path>
<path d="M390.5 173h119.5"></path>
<rect x="353.5" y="162" width="37" height="22" rx="10" ry="10"></rect>
<text x="372" y="177">\"</text>
</g>
<path d="M510 173h20"></path>
<path d="M214 173a10 10 0 0 1 10 10v10a10 10 0 0 0 10 10"></path>
<g class="terminal literal">
<path d="M234 203h119.5"></path>
<path d="M390.5 203h119.5"></path>
<rect x="353.5" y="192" width="37" height="22" rx="10" ry="10"></rect>
<text x="372" y="207">\\</text>
</g>
<path d="M510 203a10 10 0 0 0 10 -10v-10a10 10 0 0 1 10 -10"></path>
<path d="M214 173a10 10 0 0 1 10 10v40a10 10 0 0 0 10 10"></path>
<g class="terminal literal">
<path d="M234 233h123.75"></path>
<path d="M386.25 233h123.75"></path>
<rect x="357.75" y="222" width="28.5" height="22" rx="10" ry="10"></rect>
<text x="372" y="237">/</text>
</g>
<path d="M510 233a10 10 0 0 0 10 -10v-40a10 10 0 0 1 10 -10"></path>
<path d="M214 173a10 10 0 0 1 10 10v70a10 10 0 0 0 10 10"></path>
<g class="terminal literal">
<path d="M234 263h123.75"></path>
<path d="M386.25 263h123.75"></path>
<rect x="357.75" y="252" width="28.5" height="22" rx="10" ry="10"></rect>
<text x="372" y="267">b</text>
</g>
<path d="M510 263a10 10 0 0 0 10 -10v-70a10 10 0 0 1 10 -10"></path>
<path d="M214 173a10 10 0 0 1 10 10v100a10 10 0 0 0 10 10"></path>
<g class="terminal literal">
<path d="M234 293h123.75"></path>
<path d="M386.25 293h123.75"></path>
<rect x="357.75" y="282" width="28.5" height="22" rx="10" ry="10"></rect>
<text x="372" y="297">f</text>
</g>
<path d="M510 293a10 10 0 0 0 10 -10v-100a10 10 0 0 1 10 -10"></path>
<path d="M214 173a10 10 0 0 1 10 10v130a10 10 0 0 0 10 10"></path>
<g class="terminal literal">
<path d="M234 323h123.75"></path>
<path d="M386.25 323h123.75"></path>
<rect x="357.75" y="312" width="28.5" height="22" rx="10" ry="10"></rect>
<text x="372" y="327">n</text>
</g>
<path d="M510 323a10 10 0 0 0 10 -10v-130a10 10 0 0 1 10 -10"></path>
<path d="M214 173a10 10 0 0 1 10 10v160a10 10 0 0 0 10 10"></path>
<g class="terminal literal">
<path d="M234 353h123.75"></path>
<path d="M386.25 353h123.75"></path>
<rect x="357.75" y="342" width="28.5" height="22" rx="10" ry="10"></rect>
<text x="372" y="357">r</text>
</g>
<path d="M510 353a10 10 0 0 0 10 -10v-160a10 10 0 0 1 10 -10"></path>
<path d="M214 173a10 10 0 0 1 10 10v190a10 10 0 0 0 10 10"></path>
<g class="terminal literal">
<path d="M234 383h123.75"></path>
<path d="M386.25 383h123.75"></path>
<rect x="357.75" y="372" width="28.5" height="22" rx="10" ry="10"></rect>
<text x="372" y="387">t</text>
</g>
<path d="M510 383a10 10 0 0 0 10 -10v-190a10 10 0 0 1 10 -10"></path>
<path d="M214 173a10 10 0 0 1 10 10v300a10 10 0 0 0 10 10"></path>
<g class="Sequence">
<path d="M234 493h0"></path>
<path d="M510 493h0"></path>
<path d="M262.5 493h10"></path>
<g class="terminal literal">
<path d="M234 493h0"></path>
<path d="M262.5 493h0"></path>
<rect x="234" y="482" width="28.5" height="22" rx="10" ry="10"></rect>
<text x="248.25" y="497">u</text>
</g>
<path d="M272.5 493h10"></path>
<g class="Group rule">
<path d="M282.5 493h0"></path>
<path d="M510 493h0"></path>
<rect x="282.5" y="418" width="227.5" height="118" rx="10" ry="10" class="group-box"></rect>
<g class="Choice">
<path d="M282.5 493h0"></path>
<path d="M510 493h0"></path>
<path d="M282.5 493a10 10 0 0 0 10 -10v-47a10 10 0 0 1 10 -10"></path>
<g class="Skip">
<path d="M302.5 426h187.5"></path>
</g>
<path d="M490 426a10 10 0 0 1 10 10v47a10 10 0 0 0 10 10"></path>
<path d="M282.5 493h20"></path>
<g class="Group repeat-box">
<path d="M302.5 493h0"></path>
<path d="M490 493h0"></path>
<rect x="302.5" y="450" width="187.5" height="78" rx="10" ry="10" class="group-box"></rect>
<g class="OneOrMore">
<path d="M302.5 493h46"></path>
<path d="M480 493h10"></path>
<g class="comment range">
<text x="324.5" y="485" class="comment">..</text>
</g>
<g class="comment">
<text x="340" y="485" class="comment">4</text>
</g>
<path d="M358.5 493a10 10 0 0 0 -10 10v7a10 10 0 0 0 10 10"></path>
<g class="Skip">
<path d="M358.5 520h111.5"></path>
</g>
<path d="M470 520a10 10 0 0 0 10 -10v-7a10 10 0 0 0 -10 -10"></path>
<path d="M348.5 493h10"></path>
<path d="M470 493h10"></path>
<g class="Group rule">
<path d="M358.5 493h-2.5"></path>
<path d="M472.5 493h-2.5"></path>
<rect x="356" y="474" width="116.5" height="38" rx="10" ry="10" class="group-box"></rect>
<g class="terminal class">
<path d="M356 493h10"></path>
<path d="M462.5 493h10"></path>
<rect x="366" y="482" width="96.5" height="22" rx="10" ry="10"></rect>
<text x="414.25" y="497">&#91;0-9a-f&#93;i</text>
</g>
<g class="comment">
<path d="M356 466h0"></path>
<path d="M387 466h0"></path>
<text x="371.5" y="471" class="comment">hex</text>
</g>
</g>
</g>
<g class="comment">
<path d="M302.5 442h0"></path>
<path d="M354.5 442h0"></path>
<text x="328.5" y="447" class="comment">repeat</text>
</g>
</g>
<path d="M490 493h20"></path>
</g>
<g class="comment">
<path d="M282.5 410h0"></path>
<path d="M355.5 410h0"></path>
<text x="319" y="415" class="comment">codepoint</text>
</g>
</g>
</g>
<path d="M510 493a10 10 0 0 0 10 -10v-300a10 10 0 0 1 10 -10"></path>
</g>
</g>
<g class="comment">
<path d="M157 146h0"></path>
<path d="M216 146h0"></path>
<text x="186.5" y="151" class="comment">escaped</text>
</g>
</g>
<path d="M540 173a10 10 0 0 0 10 -10v-42a10 10 0 0 1 10 -10"></path>
</g>
<g class="comment">
<path d="M137 60h0"></path>
<path d="M175 60h0"></path>
<text x="156" y="65" class="comment">char</text>
</g>
</g>
</g>
<path d="M570 111h20"></path>
</g>
<path d="M590 111h10"></path>
<g class="terminal literal">
<path d="M600 111h0"></path>
<path d="M637 111h0"></path>
<rect x="600" y="100" width="37" height="22" rx="10" ry="10"></rect>
<text x="618.5" y="115">\"</text>
</g>
</g>
<g class="comment">
<path d="M50 28h0"></path>
<path d="M144 28h0"></path>
<text x="97" y="33" class="comment">quotedString</text>
</g>
</g>
<path d="M647 111h10"></path>
<path class="End" d="M 657 111 h 20 m 0 -10 v 20"></path>
</g>
<style>  svg {
    background-color: hsl(30,20%,95%);
  }
  path {
    stroke-width: 3;
    stroke: black;
    fill: rgba(0,0,0,0);
  }
  text {
    font: bold 14px monospace;
    text-anchor: middle;
    white-space: pre;
  }
  text.diagram-text {
    font-size: 12px;
  }
  text.diagram-arrow {
    font-size: 16px;
  }
  text.label {
    text-anchor: start;
  }
  text.comment {
    font: italic 12px monospace;
  }
  g.non-terminal text {
    /*font-style: italic;*/
  }
  rect {
    stroke-width: 3;
    stroke: black;
    fill: hsl(120,100%,90%);
  }
  rect.group-box {
    stroke: gray;
    stroke-dasharray: 10 5;
    fill: none;
  }
  g.literal rect {
    fill: #fff;
  }
  path.diagram-text {
    stroke-width: 3;
    stroke: black;
    fill: white;
    cursor: help;
  }
  .decision path {
    fill: #ccc;
  }
  g.diagram-text:hover path.diagram-text {
    fill: #eee;
  }
  text.repeat-text {
    font: italic 12px monospace;
    text-anchor: end;
  }
  .repeat-box > rect.group-box {
    stroke: gray;
    stroke-width: 2;
    stroke-dasharray: 1 5;
    fill: none;
  }
  .delimiter > rect.group-box {
    stroke: gray;
    stroke-width: 2;
    stroke-dasharray: 1 5;
    fill: none;
  }

</style>
</svg>
