<svg class="railroad-diagram" width="614.5" height="120" viewBox="0 0 614.5 120" xmlns="http://www.w3.org/2000/svg" xmlns:xlink="http://www.w3.org/1999/xlink">
<g transform="translate(.5 .5)">
<g class="Start">
<path d="M20 62v20m0 -10h20"></path>
</g>
<path d="M40 72h10"></path>
<g class="Group rule">
<path d="M50 72h0"></path>
<path d="M564.5 72h0"></path>
<rect x="50" y="36" width="514.5" height="64" rx="10" ry="10" class="group-box"></rect>
<g class="Sequence">
<path d="M50 72h10"></path>
<path d="M554.5 72h10"></path>
<path d="M209.5 72h10"></path>
<g class="Sequence">
<path d="M60 72h0"></path>
<path d="M209.5 72h0"></path>
<g class="Choice">
<path d="M60 72h0"></path>
<path d="M137 72h0"></path>
<path d="M60 72a10 10 0 0 0 10 -10v0a10 10 0 0 1 10 -10"></path>
<g class="Skip">
<path d="M80 52h37"></path>
</g>
<path d="M117 52a10 10 0 0 1 10 10v0a10 10 0 0 0 10 10"></path>
<path d="M60 72h20"></path>
<g class="non-terminal rule-ref">
<path d="M80 72h0"></path>
<path d="M117 72h0"></path>
<rect x="80" y="61" width="37" height="22"></rect>
<text x="98.5" y="76">WS</text>
</g>
<path d="M117 72h20"></path>
</g>
<path d="M137 72h10"></path>
<g class="non-terminal rule-ref">
<path d="M147 72h0"></path>
<path d="M209.5 72h0"></path>
<rect x="147" y="61" width="62.5" height="22"></rect>
<text x="178.25" y="76">Value</text>
</g>
</g>
<g class="Choice">
<path d="M219.5 72h0"></path>
<path d="M554.5 72h0"></path>
<path d="M219.5 72a10 10 0 0 0 10 -10v-8a10 10 0 0 1 10 -10"></path>
<g class="Skip">
<path d="M239.5 44h295"></path>
</g>
<path d="M534.5 44a10 10 0 0 1 10 10v8a10 10 0 0 0 10 10"></path>
<path d="M219.5 72h20"></path>
<g class="OneOrMore">
<path d="M239.5 72h0"></path>
<path d="M534.5 72h0"></path>
<path d="M249.5 72a10 10 0 0 0 -10 10v0a10 10 0 0 0 10 10"></path>
<g class="Skip">
<path d="M249.5 92h275"></path>
</g>
<path d="M524.5 92a10 10 0 0 0 10 -10v0a10 10 0 0 0 -10 -10"></path>
<path d="M239.5 72h10"></path>
<path d="M524.5 72h10"></path>
<g class="Sequence">
<path d="M249.5 72h0"></path>
<path d="M524.5 72h0"></path>
<g class="Choice">
<path d="M249.5 72h0"></path>
<path d="M326.5 72h0"></path>
<path d="M249.5 72a10 10 0 0 0 10 -10v0a10 10 0 0 1 10 -10"></path>
<g class="Skip">
<path d="M269.5 52h37"></path>
</g>
<path d="M306.5 52a10 10 0 0 1 10 10v0a10 10 0 0 0 10 10"></path>
<path d="M249.5 72h20"></path>
<g class="non-terminal rule-ref">
<path d="M269.5 72h0"></path>
<path d="M306.5 72h0"></path>
<rect x="269.5" y="61" width="37" height="22"></rect>
<text x="288" y="76">WS</text>
</g>
<path d="M306.5 72h20"></path>
</g>
<path d="M326.5 72h10"></path>
<path d="M365 72h10"></path>
<g class="terminal literal">
<path d="M336.5 72h0"></path>
<path d="M365 72h0"></path>
<rect x="336.5" y="61" width="28.5" height="22" rx="10" ry="10"></rect>
<text x="350.75" y="76">,</text>
</g>
<g class="Choice">
<path d="M375 72h0"></path>
<path d="M452 72h0"></path>
<path d="M375 72a10 10 0 0 0 10 -10v0a10 10 0 0 1 10 -10"></path>
<g class="Skip">
<path d="M395 52h37"></path>
</g>
<path d="M432 52a10 10 0 0 1 10 10v0a10 10 0 0 0 10 10"></path>
<path d="M375 72h20"></path>
<g class="non-terminal rule-ref">
<path d="M395 72h0"></path>
<path d="M432 72h0"></path>
<rect x="395" y="61" width="37" height="22"></rect>
<text x="413.5" y="76">WS</text>
</g>
<path d="M432 72h20"></path>
</g>
<path d="M452 72h10"></path>
<g class="non-terminal rule-ref">
<path d="M462 72h0"></path>
<path d="M524.5 72h0"></path>
<rect x="462" y="61" width="62.5" height="22"></rect>
<text x="493.25" y="76">Value</text>
</g>
</g>
</g>
<path d="M534.5 72h20"></path>
</g>
</g>
<g class="comment">
<path d="M50 28h0"></path>
<path d="M123 28h0"></path>
<text x="86.5" y="33" class="comment">ValueList</text>
</g>
</g>
<path d="M564.5 72h10"></path>
<path class="End" d="M 574.5 72 h 20 m 0 -10 v 20"></path>
</g>
<style>  svg {
    background-color: hsl(30,20%,95%);
  }
  path {
    stroke-width: 3;
    stroke: black;
    fill: rgba(0,0,0,0);
  }
  text {
    font: bold 14px monospace;
    text-anchor: middle;
    white-space: pre;
  }
  text.diagram-text {
    font-size: 12px;
  }
  text.diagram-arrow {
    font-size: 16px;
  }
  text.label {
    text-anchor: start;
  }
  text.comment {
    font: italic 12px monospace;
  }
  g.non-terminal text {
    /*font-style: italic;*/
  }
  rect {
    stroke-width: 3;
    stroke: black;
    fill: hsl(120,100%,90%);
  }
  rect.group-box {
    stroke: gray;
    stroke-dasharray: 10 5;
    fill: none;
  }
  g.literal rect {
    fill: #fff;
  }
  path.diagram-text {
    stroke-width: 3;
    stroke: black;
    fill: white;
    cursor: help;
  }
  .decision path {
    fill: #ccc;
  }
  g.diagram-text:hover path.diagram-text {
    fill: #eee;
  }
  text.repeat-text {
    font: italic 12px monospace;
    text-anchor: end;
  }
  .repeat-box > rect.group-box {
    stroke: gray;
    stroke-width: 2;
    stroke-dasharray: 1 5;
    fill: none;
  }
  .delimiter > rect.group-box {
    stroke: gray;
    stroke-width: 2;
    stroke-dasharray: 1 5;
    fill: none;
  }

</style>
</svg>
