<svg class="railroad-diagram" width="465.5" height="326" viewBox="0 0 465.5 326" xmlns="http://www.w3.org/2000/svg" xmlns:xlink="http://www.w3.org/1999/xlink">
<g transform="translate(.5 .5)">
<g class="Start">
<path d="M20 69v20m0 -10h20"></path>
</g>
<path d="M40 79h10"></path>
<g class="Group rule">
<path d="M50 79h0"></path>
<path d="M415.5 79h0"></path>
<rect x="50" y="36" width="365.5" height="270" rx="10" ry="10" class="group-box"></rect>
<g class="Choice">
<path d="M50 79h0"></path>
<path d="M415.5 79h0"></path>
<path d="M50 79h20"></path>
<g class="Group rule">
<path d="M70 79h81.75"></path>
<path d="M313.75 79h81.75"></path>
<rect x="151.75" y="60" width="162" height="158" rx="10" ry="10" class="group-box"></rect>
<g class="Choice">
<path d="M151.75 79h0"></path>
<path d="M313.75 79h0"></path>
<path d="M151.75 79h20"></path>
<g class="non-terminal rule-ref">
<path d="M171.75 79h0"></path>
<path d="M293.75 79h0"></path>
<rect x="171.75" y="68" width="122" height="22"></rect>
<text x="232.75" y="83">QuotedString</text>
</g>
<path d="M293.75 79h20"></path>
<path d="M151.75 79a10 10 0 0 1 10 10v10a10 10 0 0 0 10 10"></path>
<g class="non-terminal rule-ref">
<path d="M171.75 109h25.5"></path>
<path d="M268.25 109h25.5"></path>
<rect x="197.25" y="98" width="71" height="22"></rect>
<text x="232.75" y="113">Number</text>
</g>
<path d="M293.75 109a10 10 0 0 0 10 -10v-10a10 10 0 0 1 10 -10"></path>
<path d="M151.75 79a10 10 0 0 1 10 10v40a10 10 0 0 0 10 10"></path>
<g class="terminal literal">
<path d="M171.75 139h34"></path>
<path d="M259.75 139h34"></path>
<rect x="205.75" y="128" width="54" height="22" rx="10" ry="10"></rect>
<text x="232.75" y="143">true</text>
</g>
<path d="M293.75 139a10 10 0 0 0 10 -10v-40a10 10 0 0 1 10 -10"></path>
<path d="M151.75 79a10 10 0 0 1 10 10v70a10 10 0 0 0 10 10"></path>
<g class="terminal literal">
<path d="M171.75 169h29.75"></path>
<path d="M264 169h29.75"></path>
<rect x="201.5" y="158" width="62.5" height="22" rx="10" ry="10"></rect>
<text x="232.75" y="173">false</text>
</g>
<path d="M293.75 169a10 10 0 0 0 10 -10v-70a10 10 0 0 1 10 -10"></path>
<path d="M151.75 79a10 10 0 0 1 10 10v100a10 10 0 0 0 10 10"></path>
<g class="terminal literal">
<path d="M171.75 199h34"></path>
<path d="M259.75 199h34"></path>
<rect x="205.75" y="188" width="54" height="22" rx="10" ry="10"></rect>
<text x="232.75" y="203">null</text>
</g>
<path d="M293.75 199a10 10 0 0 0 10 -10v-100a10 10 0 0 1 10 -10"></path>
</g>
<g class="comment">
<path d="M151.75 52h0"></path>
<path d="M203.75 52h0"></path>
<text x="177.75" y="57" class="comment">Scalar</text>
</g>
</g>
<path d="M395.5 79h20"></path>
<path d="M50 79a10 10 0 0 1 10 10v171a10 10 0 0 0 10 10"></path>
<g class="Group rule">
<path d="M70 270h0"></path>
<path d="M395.5 270h0"></path>
<rect x="70" y="242" width="325.5" height="56" rx="10" ry="10" class="group-box"></rect>
<g class="Sequence">
<path d="M70 270h10"></path>
<path d="M385.5 270h10"></path>
<path d="M176.5 270h10"></path>
<g class="non-terminal rule-ref">
<path d="M80 270h0"></path>
<path d="M176.5 270h0"></path>
<rect x="80" y="259" width="96.5" height="22"></rect>
<text x="128.25" y="274">NameStart</text>
</g>
<g class="Choice">
<path d="M186.5 270h0"></path>
<path d="M385.5 270h0"></path>
<path d="M186.5 270a10 10 0 0 0 10 -10v0a10 10 0 0 1 10 -10"></path>
<g class="Skip">
<path d="M206.5 250h159"></path>
</g>
<path d="M365.5 250a10 10 0 0 1 10 10v0a10 10 0 0 0 10 10"></path>
<path d="M186.5 270h20"></path>
<g class="OneOrMore">
<path d="M206.5 270h0"></path>
<path d="M365.5 270h0"></path>
<path d="M216.5 270a10 10 0 0 0 -10 10v0a10 10 0 0 0 10 10"></path>
<g class="Skip">
<path d="M216.5 290h139"></path>
</g>
<path d="M355.5 290a10 10 0 0 0 10 -10v0a10 10 0 0 0 -10 -10"></path>
<path d="M206.5 270h10"></path>
<path d="M355.5 270h10"></path>
<g class="terminal class">
<path d="M216.5 270h0"></path>
<path d="M355.5 270h0"></path>
<rect x="216.5" y="259" width="139" height="22" rx="10" ry="10"></rect>
<text x="286" y="274">&#91;^ \t\n\r",:;&#93;</text>
</g>
</g>
<path d="M365.5 270h20"></path>
</g>
</g>
<g class="comment">
<path d="M70 234h0"></path>
<path d="M178 234h0"></path>
<text x="124" y="239" class="comment">UnquotedString</text>
</g>
</g>
<path d="M395.5 270a10 10 0 0 0 10 -10v-171a10 10 0 0 1 10 -10"></path>
</g>
<g class="comment">
<path d="M50 28h0"></path>
<path d="M144 28h0"></path>
<text x="97" y="33" class="comment">Value(value)</text>
</g>
</g>
<path d="M415.5 79h10"></path>
<path class="End" d="M 425.5 79 h 20 m 0 -10 v 20"></path>
</g>
<style>  svg {
    background-color: hsl(30,20%,95%);
  }
  path {
    stroke-width: 3;
    stroke: black;
    fill: rgba(0,0,0,0);
  }
  text {
    font: bold 14px monospace;
    text-anchor: middle;
    white-space: pre;
  }
  text.diagram-text {
    font-size: 12px;
  }
  text.diagram-arrow {
    font-size: 16px;
  }
  text.label {
    text-anchor: start;
  }
  text.comment {
    font: italic 12px monospace;
  }
  g.non-terminal text {
    /*font-style: italic;*/
  }
  rect {
    stroke-width: 3;
    stroke: black;
    fill: hsl(120,100%,90%);
  }
  rect.group-box {
    stroke: gray;
    stroke-dasharray: 10 5;
    fill: none;
  }
  g.literal rect {
    fill: #fff;
  }
  path.diagram-text {
    stroke-width: 3;
    stroke: black;
    fill: white;
    cursor: help;
  }
  .decision path {
    fill: #ccc;
  }
  g.diagram-text:hover path.diagram-text {
    fill: #eee;
  }
  text.repeat-text {
    font: italic 12px monospace;
    text-anchor: end;
  }
  .repeat-box > rect.group-box {
    stroke: gray;
    stroke-width: 2;
    stroke-dasharray: 1 5;
    fill: none;
  }
  .delimiter > rect.group-box {
    stroke: gray;
    stroke-width: 2;
    stroke-dasharray: 1 5;
    fill: none;
  }

</style>
</svg>
