<svg class="railroad-diagram" width="347.5" height="175" viewBox="0 0 347.5 175" xmlns="http://www.w3.org/2000/svg" xmlns:xlink="http://www.w3.org/1999/xlink">
<g transform="translate(.5 .5)">
<g class="Start">
<path d="M20 79v20m0 -10h20"></path>
</g>
<path d="M40 89h10"></path>
<g class="Group rule">
<path d="M50 89h0"></path>
<path d="M297.5 89h0"></path>
<rect x="50" y="36" width="247.5" height="119" rx="10" ry="10" class="group-box"></rect>
<g class="Group repeat-box">
<path d="M50 89h10"></path>
<path d="M287.5 89h10"></path>
<rect x="60" y="60" width="227.5" height="87" rx="10" ry="10" class="group-box"></rect>
<g class="OneOrMore">
<path d="M60 89h53"></path>
<path d="M277.5 89h10"></path>
<g class="comment">
<text x="73.5" y="81" class="comment">1</text>
</g>
<g class="comment range">
<text x="89" y="81" class="comment">..</text>
</g>
<g class="comment">
<text x="104.5" y="81" class="comment">∞</text>
</g>
<path d="M123 89a10 10 0 0 0 -10 10v19a10 10 0 0 0 10 10"></path>
<g class="Sequence">
<path d="M123 128h14.5"></path>
<path d="M253 128h14.5"></path>
<g class="Choice">
<path d="M137.5 128h0"></path>
<path d="M214.5 128h0"></path>
<path d="M137.5 128a10 10 0 0 0 10 -10v0a10 10 0 0 1 10 -10"></path>
<g class="Skip">
<path d="M157.5 108h37"></path>
</g>
<path d="M194.5 108a10 10 0 0 1 10 10v0a10 10 0 0 0 10 10"></path>
<path d="M137.5 128h20"></path>
<g class="non-terminal rule-ref">
<path d="M157.5 128h0"></path>
<path d="M194.5 128h0"></path>
<rect x="157.5" y="117" width="37" height="22"></rect>
<text x="176" y="132">WS</text>
</g>
<path d="M194.5 128h20"></path>
</g>
<path d="M214.5 128h10"></path>
<g class="terminal literal">
<path d="M224.5 128h0"></path>
<path d="M253 128h0"></path>
<rect x="224.5" y="117" width="28.5" height="22" rx="10" ry="10"></rect>
<text x="238.75" y="132">,</text>
</g>
</g>
<path d="M267.5 128a10 10 0 0 0 10 -10v-19a10 10 0 0 0 -10 -10"></path>
<path d="M113 89h10"></path>
<path d="M267.5 89h10"></path>
<g class="Sequence">
<path d="M123 89h-2.5"></path>
<path d="M270 89h-2.5"></path>
<g class="Choice">
<path d="M120.5 89h0"></path>
<path d="M197.5 89h0"></path>
<path d="M120.5 89a10 10 0 0 0 10 -10v0a10 10 0 0 1 10 -10"></path>
<g class="Skip">
<path d="M140.5 69h37"></path>
</g>
<path d="M177.5 69a10 10 0 0 1 10 10v0a10 10 0 0 0 10 10"></path>
<path d="M120.5 89h20"></path>
<g class="non-terminal rule-ref">
<path d="M140.5 89h0"></path>
<path d="M177.5 89h0"></path>
<rect x="140.5" y="78" width="37" height="22"></rect>
<text x="159" y="93">WS</text>
</g>
<path d="M177.5 89h20"></path>
</g>
<path d="M197.5 89h10"></path>
<g class="non-terminal rule-ref">
<path d="M207.5 89h0"></path>
<path d="M270 89h0"></path>
<rect x="207.5" y="78" width="62.5" height="22"></rect>
<text x="238.75" y="93">Value</text>
</g>
</g>
</g>
<g class="comment">
<path d="M60 52h0"></path>
<path d="M112 52h0"></path>
<text x="86" y="57" class="comment">repeat</text>
</g>
</g>
<g class="comment">
<path d="M50 28h0"></path>
<path d="M123 28h0"></path>
<text x="86.5" y="33" class="comment">ValueList</text>
</g>
</g>
<path d="M297.5 89h10"></path>
<path class="End" d="M 307.5 89 h 20 m 0 -10 v 20"></path>
</g>
<style>  svg {
    background-color: hsl(30,20%,95%);
  }
  path {
    stroke-width: 3;
    stroke: black;
    fill: rgba(0,0,0,0);
  }
  text {
    font: bold 14px monospace;
    text-anchor: middle;
    white-space: pre;
  }
  text.diagram-text {
    font-size: 12px;
  }
  text.diagram-arrow {
    font-size: 16px;
  }
  text.label {
    text-anchor: start;
  }
  text.comment {
    font: italic 12px monospace;
  }
  g.non-terminal text {
    /*font-style: italic;*/
  }
  rect {
    stroke-width: 3;
    stroke: black;
    fill: hsl(120,100%,90%);
  }
  rect.group-box {
    stroke: gray;
    stroke-dasharray: 10 5;
    fill: none;
  }
  g.literal rect {
    fill: #fff;
  }
  path.diagram-text {
    stroke-width: 3;
    stroke: black;
    fill: white;
    cursor: help;
  }
  .decision path {
    fill: #ccc;
  }
  g.diagram-text:hover path.diagram-text {
    fill: #eee;
  }
  text.repeat-text {
    font: italic 12px monospace;
    text-anchor: end;
  }
  .repeat-box > rect.group-box {
    stroke: gray;
    stroke-width: 2;
    stroke-dasharray: 1 5;
    fill: none;
  }
  .delimiter > rect.group-box {
    stroke: gray;
    stroke-width: 2;
    stroke-dasharray: 1 5;
    fill: none;
  }

</style>
</svg>
