<svg class="railroad-diagram" width="528.5" height="296" viewBox="0 0 528.5 296" xmlns="http://www.w3.org/2000/svg" xmlns:xlink="http://www.w3.org/1999/xlink">
<g transform="translate(.5 .5)">
<g class="Start">
<path d="M20 69v20m0 -10h20"></path>
</g>
<path d="M40 79h10"></path>
<g class="Group rule">
<path d="M50 79h0"></path>
<path d="M478.5 79h0"></path>
<rect x="50" y="36" width="428.5" height="240" rx="10" ry="10" class="group-box"></rect>
<g class="Choice">
<path d="M50 79h0"></path>
<path d="M478.5 79h0"></path>
<path d="M50 79h20"></path>
<g class="Group rule">
<path d="M70 79h113.25"></path>
<path d="M345.25 79h113.25"></path>
<rect x="183.25" y="60" width="162" height="128" rx="10" ry="10" class="group-box"></rect>
<g class="Choice">
<path d="M183.25 79h0"></path>
<path d="M345.25 79h0"></path>
<path d="M183.25 79h20"></path>
<g class="non-terminal rule-ref">
<path d="M203.25 79h0"></path>
<path d="M325.25 79h0"></path>
<rect x="203.25" y="68" width="122" height="22"></rect>
<text x="264.25" y="83">QuotedString</text>
</g>
<path d="M325.25 79h20"></path>
<path d="M183.25 79a10 10 0 0 1 10 10v10a10 10 0 0 0 10 10"></path>
<g class="non-terminal rule-ref">
<path d="M203.25 109h25.5"></path>
<path d="M299.75 109h25.5"></path>
<rect x="228.75" y="98" width="71" height="22"></rect>
<text x="264.25" y="113">Number</text>
</g>
<path d="M325.25 109a10 10 0 0 0 10 -10v-10a10 10 0 0 1 10 -10"></path>
<path d="M183.25 79a10 10 0 0 1 10 10v40a10 10 0 0 0 10 10"></path>
<g class="terminal literal">
<path d="M203.25 139h34"></path>
<path d="M291.25 139h34"></path>
<rect x="237.25" y="128" width="54" height="22" rx="10" ry="10"></rect>
<text x="264.25" y="143">true</text>
</g>
<path d="M325.25 139a10 10 0 0 0 10 -10v-40a10 10 0 0 1 10 -10"></path>
<path d="M183.25 79a10 10 0 0 1 10 10v70a10 10 0 0 0 10 10"></path>
<g class="terminal literal">
<path d="M203.25 169h29.75"></path>
<path d="M295.5 169h29.75"></path>
<rect x="233" y="158" width="62.5" height="22" rx="10" ry="10"></rect>
<text x="264.25" y="173">false</text>
</g>
<path d="M325.25 169a10 10 0 0 0 10 -10v-70a10 10 0 0 1 10 -10"></path>
</g>
<g class="comment">
<path d="M183.25 52h0"></path>
<path d="M235.25 52h0"></path>
<text x="209.25" y="57" class="comment">Scalar</text>
</g>
</g>
<path d="M458.5 79h20"></path>
<path d="M50 79a10 10 0 0 1 10 10v141a10 10 0 0 0 10 10"></path>
<g class="Group rule">
<path d="M70 240h0"></path>
<path d="M458.5 240h0"></path>
<rect x="70" y="212" width="388.5" height="56" rx="10" ry="10" class="group-box"></rect>
<g class="Sequence">
<path d="M70 240h10"></path>
<path d="M448.5 240h10"></path>
<path d="M185 240h10"></path>
<g class="non-terminal rule-ref">
<path d="M80 240h0"></path>
<path d="M185 240h0"></path>
<rect x="80" y="229" width="105" height="22"></rect>
<text x="132.5" y="244">PlainStart</text>
</g>
<g class="Choice">
<path d="M195 240h0"></path>
<path d="M448.5 240h0"></path>
<path d="M195 240a10 10 0 0 0 10 -10v0a10 10 0 0 1 10 -10"></path>
<g class="Skip">
<path d="M215 220h213.5"></path>
</g>
<path d="M428.5 220a10 10 0 0 1 10 10v0a10 10 0 0 0 10 10"></path>
<path d="M195 240h20"></path>
<g class="OneOrMore">
<path d="M215 240h0"></path>
<path d="M428.5 240h0"></path>
<path d="M225 240a10 10 0 0 0 -10 10v0a10 10 0 0 0 10 10"></path>
<g class="Skip">
<path d="M225 260h193.5"></path>
</g>
<path d="M418.5 260a10 10 0 0 0 10 -10v0a10 10 0 0 0 -10 -10"></path>
<path d="M215 240h10"></path>
<path d="M418.5 240h10"></path>
<g class="Sequence">
<path d="M225 240h0"></path>
<path d="M418.5 240h0"></path>
<path d="M302 240h10"></path>
<g class="Sequence">
<path d="M225 240h0"></path>
<path d="M302 240h0"></path>
<path d="M253.5 240h10"></path>
<g class="decision simple-and">
<path d="M225 240h0"></path>
<path d="M253.5 240h0"></path>
<path d="M225 240v5.5l5.5 5.5h17.5l5.5 -5.5v-11l-5.5 -5.5h-17.5l-5.5 5.5v5.5"></path>
<text x="239.25" y="244">!</text>
</g>
<path d="M263.5 240h10"></path>
<g class="terminal literal">
<path d="M273.5 240h0"></path>
<path d="M302 240h0"></path>
<rect x="273.5" y="229" width="28.5" height="22" rx="10" ry="10"></rect>
<text x="287.75" y="244">,</text>
</g>
</g>
<path d="M312 240h10"></path>
<g class="non-terminal rule-ref">
<path d="M322 240h0"></path>
<path d="M418.5 240h0"></path>
<rect x="322" y="229" width="96.5" height="22"></rect>
<text x="370.25" y="244">PlainChar</text>
</g>
</g>
</g>
<path d="M428.5 240h20"></path>
</g>
</g>
<g class="comment">
<path d="M70 204h0"></path>
<path d="M178 204h0"></path>
<text x="124" y="209" class="comment">UnquotedString</text>
</g>
</g>
<path d="M458.5 240a10 10 0 0 0 10 -10v-141a10 10 0 0 1 10 -10"></path>
</g>
<g class="comment">
<path d="M50 28h0"></path>
<path d="M144 28h0"></path>
<text x="97" y="33" class="comment">Value(value)</text>
</g>
</g>
<path d="M478.5 79h10"></path>
<path class="End" d="M 488.5 79 h 20 m 0 -10 v 20"></path>
</g>
<style>  svg {
    background-color: hsl(30,20%,95%);
  }
  path {
    stroke-width: 3;
    stroke: black;
    fill: rgba(0,0,0,0);
  }
  text {
    font: bold 14px monospace;
    text-anchor: middle;
    white-space: pre;
  }
  text.diagram-text {
    font-size: 12px;
  }
  text.diagram-arrow {
    font-size: 16px;
  }
  text.label {
    text-anchor: start;
  }
  text.comment {
    font: italic 12px monospace;
  }
  g.non-terminal text {
    /*font-style: italic;*/
  }
  rect {
    stroke-width: 3;
    stroke: black;
    fill: hsl(120,100%,90%);
  }
  rect.group-box {
    stroke: gray;
    stroke-dasharray: 10 5;
    fill: none;
  }
  g.literal rect {
    fill: #fff;
  }
  path.diagram-text {
    stroke-width: 3;
    stroke: black;
    fill: white;
    cursor: help;
  }
  .decision path {
    fill: #ccc;
  }
  g.diagram-text:hover path.diagram-text {
    fill: #eee;
  }
  text.repeat-text {
    font: italic 12px monospace;
    text-anchor: end;
  }
  .repeat-box > rect.group-box {
    stroke: gray;
    stroke-width: 2;
    stroke-dasharray: 1 5;
    fill: none;
  }
  .delimiter > rect.group-box {
    stroke: gray;
    stroke-width: 2;
    stroke-dasharray: 1 5;
    fill: none;
  }

</style>
</svg>
