<svg class="railroad-diagram" width="400" height="181" viewBox="0 0 400 181" xmlns="http://www.w3.org/2000/svg" xmlns:xlink="http://www.w3.org/1999/xlink">
<g transform="translate(.5 .5)">
<g class="Start">
<path d="M20 45v20m0 -10h20"></path>
</g>
<path d="M40 55h10"></path>
<g class="Group rule">
<path d="M50 55h0"></path>
<path d="M350 55h0"></path>
<rect x="50" y="36" width="300" height="125" rx="10" ry="10" class="group-box"></rect>
<g class="Choice">
<path d="M50 55h0"></path>
<path d="M350 55h0"></path>
<path d="M50 55h20"></path>
<g class="Sequence">
<path d="M70 55h0"></path>
<path d="M330 55h0"></path>
<g class="Choice">
<path d="M70 55h0"></path>
<path d="M240.5 55h0"></path>
<path d="M70 55h20"></path>
<g class="non-terminal rule-ref">
<path d="M90 55h0"></path>
<path d="M220.5 55h0"></path>
<rect x="90" y="44" width="130.5" height="22"></rect>
<text x="155.25" y="59">trailingSpace</text>
</g>
<path d="M220.5 55h20"></path>
<path d="M70 55a10 10 0 0 1 10 10v19a10 10 0 0 0 10 10"></path>
<g class="Choice">
<path d="M90 94h4"></path>
<path d="M216.5 94h4"></path>
<path d="M94 94a10 10 0 0 0 10 -10v0a10 10 0 0 1 10 -10"></path>
<g class="Skip">
<path d="M114 74h82.5"></path>
</g>
<path d="M196.5 74a10 10 0 0 1 10 10v0a10 10 0 0 0 10 10"></path>
<path d="M94 94h20"></path>
<g class="OneOrMore">
<path d="M114 94h0"></path>
<path d="M196.5 94h0"></path>
<path d="M124 94a10 10 0 0 0 -10 10v0a10 10 0 0 0 10 10"></path>
<g class="Skip">
<path d="M124 114h62.5"></path>
</g>
<path d="M186.5 114a10 10 0 0 0 10 -10v0a10 10 0 0 0 -10 -10"></path>
<path d="M114 94h10"></path>
<path d="M186.5 94h10"></path>
<g class="non-terminal rule-ref">
<path d="M124 94h0"></path>
<path d="M186.5 94h0"></path>
<rect x="124" y="83" width="62.5" height="22"></rect>
<text x="155.25" y="98">space</text>
</g>
</g>
<path d="M196.5 94h20"></path>
</g>
<path d="M220.5 94a10 10 0 0 0 10 -10v-19a10 10 0 0 1 10 -10"></path>
</g>
<path d="M240.5 55h10"></path>
<g class="non-terminal rule-ref">
<path d="M250.5 55h0"></path>
<path d="M330 55h0"></path>
<rect x="250.5" y="44" width="79.5" height="22"></rect>
<text x="290.25" y="59">folding</text>
</g>
</g>
<path d="M330 55h20"></path>
<path d="M50 55a10 10 0 0 1 10 10v58a10 10 0 0 0 10 10"></path>
<g class="OneOrMore">
<path d="M70 133h88.75"></path>
<path d="M241.25 133h88.75"></path>
<path d="M168.75 133a10 10 0 0 0 -10 10v0a10 10 0 0 0 10 10"></path>
<g class="Skip">
<path d="M168.75 153h62.5"></path>
</g>
<path d="M231.25 153a10 10 0 0 0 10 -10v0a10 10 0 0 0 -10 -10"></path>
<path d="M158.75 133h10"></path>
<path d="M231.25 133h10"></path>
<g class="non-terminal rule-ref">
<path d="M168.75 133h0"></path>
<path d="M231.25 133h0"></path>
<rect x="168.75" y="122" width="62.5" height="22"></rect>
<text x="200" y="137">space</text>
</g>
</g>
<path d="M330 133a10 10 0 0 0 10 -10v-58a10 10 0 0 1 10 -10"></path>
</g>
<g class="comment">
<path d="M50 28h0"></path>
<path d="M130 28h0"></path>
<text x="90" y="33" class="comment">whiteSpace</text>
</g>
</g>
<path d="M350 55h10"></path>
<path class="End" d="M 360 55 h 20 m 0 -10 v 20"></path>
</g>
<style>  svg {
    background-color: hsl(30,20%,95%);
  }
  path {
    stroke-width: 3;
    stroke: black;
    fill: rgba(0,0,0,0);
  }
  text {
    font: bold 14px monospace;
    text-anchor: middle;
    white-space: pre;
  }
  text.diagram-text {
    font-size: 12px;
  }
  text.diagram-arrow {
    font-size: 16px;
  }
  text.label {
    text-anchor: start;
  }
  text.comment {
    font: italic 12px monospace;
  }
  g.non-terminal text {
    /*font-style: italic;*/
  }
  rect {
    stroke-width: 3;
    stroke: black;
    fill: hsl(120,100%,90%);
  }
  rect.group-box {
    stroke: gray;
    stroke-dasharray: 10 5;
    fill: none;
  }
  g.literal rect {
    fill: #fff;
  }
  path.diagram-text {
    stroke-width: 3;
    stroke: black;
    fill: white;
    cursor: help;
  }
  .decision path {
    fill: #ccc;
  }
  g.diagram-text:hover path.diagram-text {
    fill: #eee;
  }
  text.repeat-text {
    font: italic 12px monospace;
    text-anchor: end;
  }
  .repeat-box > rect.group-box {
    stroke: gray;
    stroke-width: 2;
    stroke-dasharray: 1 5;
    fill: none;
  }
  .delimiter > rect.group-box {
    stroke: gray;
    stroke-width: 2;
    stroke-dasharray: 1 5;
    fill: none;
  }

</style>
</svg>
