<svg class="railroad-diagram" width="717.5" height="172" viewBox="0 0 717.5 172" xmlns="http://www.w3.org/2000/svg" xmlns:xlink="http://www.w3.org/1999/xlink">
<g transform="translate(.5 .5)">
<g class="Start">
<path d="M20 54v20m0 -10h20"></path>
</g>
<path d="M40 64h10"></path>
<g class="Group rule">
<path d="M50 64h0"></path>
<path d="M667.5 64h0"></path>
<rect x="50" y="36" width="617.5" height="116" rx="10" ry="10" class="group-box"></rect>
<g class="Choice">
<path d="M50 64h0"></path>
<path d="M667.5 64h0"></path>
<path d="M50 64h20"></path>
<g class="Sequence">
<path d="M70 64h0"></path>
<path d="M647.5 64h0"></path>
<g class="Choice">
<path d="M70 64h0"></path>
<path d="M302 64h0"></path>
<path d="M70 64h20"></path>
<g class="Sequence">
<path d="M90 64h0"></path>
<path d="M282 64h0"></path>
<path d="M152.5 64h10"></path>
<g class="non-terminal rule-ref">
<path d="M90 64h0"></path>
<path d="M152.5 64h0"></path>
<rect x="90" y="53" width="62.5" height="22"></rect>
<text x="121.25" y="68">Space</text>
</g>
<g class="Choice">
<path d="M162.5 64h0"></path>
<path d="M282 64h0"></path>
<path d="M162.5 64a10 10 0 0 0 10 -10v0a10 10 0 0 1 10 -10"></path>
<g class="Skip">
<path d="M182.5 44h79.5"></path>
</g>
<path d="M262 44a10 10 0 0 1 10 10v0a10 10 0 0 0 10 10"></path>
<path d="M162.5 64h20"></path>
<g class="non-terminal rule-ref">
<path d="M182.5 64h0"></path>
<path d="M262 64h0"></path>
<rect x="182.5" y="53" width="79.5" height="22"></rect>
<text x="222.25" y="68">Comment</text>
</g>
<path d="M262 64h20"></path>
</g>
</g>
<path d="M282 64h20"></path>
<path d="M70 64a10 10 0 0 1 10 10v19a10 10 0 0 0 10 10"></path>
<g class="Choice">
<path d="M90 103h44.75"></path>
<path d="M237.25 103h44.75"></path>
<path d="M134.75 103a10 10 0 0 0 10 -10v0a10 10 0 0 1 10 -10"></path>
<g class="Skip">
<path d="M154.75 83h62.5"></path>
</g>
<path d="M217.25 83a10 10 0 0 1 10 10v0a10 10 0 0 0 10 10"></path>
<path d="M134.75 103h20"></path>
<g class="non-terminal rule-ref">
<path d="M154.75 103h0"></path>
<path d="M217.25 103h0"></path>
<rect x="154.75" y="92" width="62.5" height="22"></rect>
<text x="186" y="107">Space</text>
</g>
<path d="M217.25 103h20"></path>
</g>
<path d="M282 103a10 10 0 0 0 10 -10v-19a10 10 0 0 1 10 -10"></path>
</g>
<path d="M302 64h10"></path>
<path d="M408.5 64h10"></path>
<g class="non-terminal rule-ref">
<path d="M312 64h0"></path>
<path d="M408.5 64h0"></path>
<rect x="312" y="53" width="96.5" height="22"></rect>
<text x="360.25" y="68">LineBreak</text>
</g>
<g class="Choice">
<path d="M418.5 64h0"></path>
<path d="M575 64h0"></path>
<path d="M418.5 64a10 10 0 0 0 10 -10v0a10 10 0 0 1 10 -10"></path>
<g class="Skip">
<path d="M438.5 44h116.5"></path>
</g>
<path d="M555 44a10 10 0 0 1 10 10v0a10 10 0 0 0 10 10"></path>
<path d="M418.5 64h20"></path>
<g class="OneOrMore">
<path d="M438.5 64h0"></path>
<path d="M555 64h0"></path>
<path d="M448.5 64a10 10 0 0 0 -10 10v0a10 10 0 0 0 10 10"></path>
<g class="Skip">
<path d="M448.5 84h96.5"></path>
</g>
<path d="M545 84a10 10 0 0 0 10 -10v0a10 10 0 0 0 -10 -10"></path>
<path d="M438.5 64h10"></path>
<path d="M545 64h10"></path>
<g class="non-terminal rule-ref">
<path d="M448.5 64h0"></path>
<path d="M545 64h0"></path>
<rect x="448.5" y="53" width="96.5" height="22"></rect>
<text x="496.75" y="68">EmptyLine</text>
</g>
</g>
<path d="M555 64h20"></path>
</g>
<path d="M575 64h10"></path>
<g class="non-terminal rule-ref">
<path d="M585 64h0"></path>
<path d="M647.5 64h0"></path>
<rect x="585" y="53" width="62.5" height="22"></rect>
<text x="616.25" y="68">Space</text>
</g>
</g>
<path d="M647.5 64h20"></path>
<path d="M50 64a10 10 0 0 1 10 10v49a10 10 0 0 0 10 10"></path>
<g class="non-terminal rule-ref">
<path d="M70 133h257.5"></path>
<path d="M390 133h257.5"></path>
<rect x="327.5" y="122" width="62.5" height="22"></rect>
<text x="358.75" y="137">Space</text>
</g>
<path d="M647.5 133a10 10 0 0 0 10 -10v-49a10 10 0 0 1 10 -10"></path>
</g>
<g class="comment">
<path d="M50 28h0"></path>
<path d="M130 28h0"></path>
<text x="90" y="33" class="comment">WhiteSpace</text>
</g>
</g>
<path d="M667.5 64h10"></path>
<path class="End" d="M 677.5 64 h 20 m 0 -10 v 20"></path>
</g>
<style>  svg {
    background-color: hsl(30,20%,95%);
  }
  path {
    stroke-width: 3;
    stroke: black;
    fill: rgba(0,0,0,0);
  }
  text {
    font: bold 14px monospace;
    text-anchor: middle;
    white-space: pre;
  }
  text.diagram-text {
    font-size: 12px;
  }
  text.diagram-arrow {
    font-size: 16px;
  }
  text.label {
    text-anchor: start;
  }
  text.comment {
    font: italic 12px monospace;
  }
  g.non-terminal text {
    /*font-style: italic;*/
  }
  rect {
    stroke-width: 3;
    stroke: black;
    fill: hsl(120,100%,90%);
  }
  rect.group-box {
    stroke: gray;
    stroke-dasharray: 10 5;
    fill: none;
  }
  g.literal rect {
    fill: #fff;
  }
  path.diagram-text {
    stroke-width: 3;
    stroke: black;
    fill: white;
    cursor: help;
  }
  .decision path {
    fill: #ccc;
  }
  g.diagram-text:hover path.diagram-text {
    fill: #eee;
  }
  text.repeat-text {
    font: italic 12px monospace;
    text-anchor: end;
  }
  .repeat-box > rect.group-box {
    stroke: gray;
    stroke-width: 2;
    stroke-dasharray: 1 5;
    fill: none;
  }
  .delimiter > rect.group-box {
    stroke: gray;
    stroke-width: 2;
    stroke-dasharray: 1 5;
    fill: none;
  }

</style>
</svg>
