<svg class="railroad-diagram" width="738.5" height="172" viewBox="0 0 738.5 172" xmlns="http://www.w3.org/2000/svg" xmlns:xlink="http://www.w3.org/1999/xlink">
<g transform="translate(.5 .5)">
<g class="Start">
<path d="M20 54v20m0 -10h20"></path>
</g>
<path d="M40 64h10"></path>
<g class="Group rule">
<path d="M50 64h0"></path>
<path d="M688.5 64h0"></path>
<rect x="50" y="36" width="638.5" height="116" rx="10" ry="10" class="group-box"></rect>
<g class="Choice">
<path d="M50 64h0"></path>
<path d="M688.5 64h0"></path>
<path d="M50 64h20"></path>
<g class="Sequence">
<path d="M70 64h0"></path>
<path d="M668.5 64h0"></path>
<g class="Choice">
<path d="M70 64h0"></path>
<path d="M240.5 64h0"></path>
<path d="M70 64h20"></path>
<g class="non-terminal rule-ref">
<path d="M90 64h0"></path>
<path d="M220.5 64h0"></path>
<rect x="90" y="53" width="130.5" height="22"></rect>
<text x="155.25" y="68">TrailingSpace</text>
</g>
<path d="M220.5 64h20"></path>
<path d="M70 64a10 10 0 0 1 10 10v19a10 10 0 0 0 10 10"></path>
<g class="Choice">
<path d="M90 103h14"></path>
<path d="M206.5 103h14"></path>
<path d="M104 103a10 10 0 0 0 10 -10v0a10 10 0 0 1 10 -10"></path>
<g class="Skip">
<path d="M124 83h62.5"></path>
</g>
<path d="M186.5 83a10 10 0 0 1 10 10v0a10 10 0 0 0 10 10"></path>
<path d="M104 103h20"></path>
<g class="non-terminal rule-ref">
<path d="M124 103h0"></path>
<path d="M186.5 103h0"></path>
<rect x="124" y="92" width="62.5" height="22"></rect>
<text x="155.25" y="107">Space</text>
</g>
<path d="M186.5 103h20"></path>
</g>
<path d="M220.5 103a10 10 0 0 0 10 -10v-19a10 10 0 0 1 10 -10"></path>
</g>
<path d="M240.5 64h10"></path>
<path d="M347 64h10"></path>
<g class="non-terminal rule-ref">
<path d="M250.5 64h0"></path>
<path d="M347 64h0"></path>
<rect x="250.5" y="53" width="96.5" height="22"></rect>
<text x="298.75" y="68">LineBreak</text>
</g>
<g class="Choice">
<path d="M357 64h0"></path>
<path d="M596 64h0"></path>
<path d="M357 64a10 10 0 0 0 10 -10v0a10 10 0 0 1 10 -10"></path>
<g class="Skip">
<path d="M377 44h199"></path>
</g>
<path d="M576 44a10 10 0 0 1 10 10v0a10 10 0 0 0 10 10"></path>
<path d="M357 64h20"></path>
<g class="OneOrMore">
<path d="M377 64h0"></path>
<path d="M576 64h0"></path>
<path d="M387 64a10 10 0 0 0 -10 10v0a10 10 0 0 0 10 10"></path>
<g class="Skip">
<path d="M387 84h179"></path>
</g>
<path d="M566 84a10 10 0 0 0 10 -10v0a10 10 0 0 0 -10 -10"></path>
<path d="M377 64h10"></path>
<path d="M566 64h10"></path>
<g class="Sequence">
<path d="M387 64h0"></path>
<path d="M566 64h0"></path>
<path d="M449.5 64h10"></path>
<g class="non-terminal rule-ref">
<path d="M387 64h0"></path>
<path d="M449.5 64h0"></path>
<rect x="387" y="53" width="62.5" height="22"></rect>
<text x="418.25" y="68">Empty</text>
</g>
<path d="M459.5 64h10"></path>
<g class="non-terminal rule-ref">
<path d="M469.5 64h0"></path>
<path d="M566 64h0"></path>
<rect x="469.5" y="53" width="96.5" height="22"></rect>
<text x="517.75" y="68">LineBreak</text>
</g>
</g>
</g>
<path d="M576 64h20"></path>
</g>
<path d="M596 64h10"></path>
<g class="non-terminal rule-ref">
<path d="M606 64h0"></path>
<path d="M668.5 64h0"></path>
<rect x="606" y="53" width="62.5" height="22"></rect>
<text x="637.25" y="68">Space</text>
</g>
</g>
<path d="M668.5 64h20"></path>
<path d="M50 64a10 10 0 0 1 10 10v49a10 10 0 0 0 10 10"></path>
<g class="non-terminal rule-ref">
<path d="M70 133h268"></path>
<path d="M400.5 133h268"></path>
<rect x="338" y="122" width="62.5" height="22"></rect>
<text x="369.25" y="137">Space</text>
</g>
<path d="M668.5 133a10 10 0 0 0 10 -10v-49a10 10 0 0 1 10 -10"></path>
</g>
<g class="comment">
<path d="M50 28h0"></path>
<path d="M130 28h0"></path>
<text x="90" y="33" class="comment">WhiteSpace</text>
</g>
</g>
<path d="M688.5 64h10"></path>
<path class="End" d="M 698.5 64 h 20 m 0 -10 v 20"></path>
</g>
<style>  svg {
    background-color: hsl(30,20%,95%);
  }
  path {
    stroke-width: 3;
    stroke: black;
    fill: rgba(0,0,0,0);
  }
  text {
    font: bold 14px monospace;
    text-anchor: middle;
    white-space: pre;
  }
  text.diagram-text {
    font-size: 12px;
  }
  text.diagram-arrow {
    font-size: 16px;
  }
  text.label {
    text-anchor: start;
  }
  text.comment {
    font: italic 12px monospace;
  }
  g.non-terminal text {
    /*font-style: italic;*/
  }
  rect {
    stroke-width: 3;
    stroke: black;
    fill: hsl(120,100%,90%);
  }
  rect.group-box {
    stroke: gray;
    stroke-dasharray: 10 5;
    fill: none;
  }
  g.literal rect {
    fill: #fff;
  }
  path.diagram-text {
    stroke-width: 3;
    stroke: black;
    fill: white;
    cursor: help;
  }
  .decision path {
    fill: #ccc;
  }
  g.diagram-text:hover path.diagram-text {
    fill: #eee;
  }
  text.repeat-text {
    font: italic 12px monospace;
    text-anchor: end;
  }
  .repeat-box > rect.group-box {
    stroke: gray;
    stroke-width: 2;
    stroke-dasharray: 1 5;
    fill: none;
  }
  .delimiter > rect.group-box {
    stroke: gray;
    stroke-width: 2;
    stroke-dasharray: 1 5;
    fill: none;
  }

</style>
</svg>
